<?xml version="1.0" encoding="utf-8"?>
<svg version="1.1" xmlns:xlink="http://www.w3.org/1999/xlink" width="12px" height="7px" xmlns="http://www.w3.org/2000/svg">
  <g transform="matrix(1 0 0 1 -346 -1253 )">
    <path d="M 11.8797595190381 0.721649484536082  C 11.9599198396794 0.801832760595645  12 0.894043528064146  12 0.998281786941581  C 12 1.10252004581901  11.9599198396794 1.19473081328751  11.8797595190381 1.27491408934708  L 6.27655310621242 6.87972508591065  C 6.19639278557114 6.95990836197022  6.10420841683367 7  6 7  C 5.89579158316633 7  5.80360721442886 6.95990836197022  5.72344689378757 6.87972508591065  L 0.120240480961924 1.27491408934708  C 0.0400801603206414 1.19473081328751  0 1.10252004581901  0 0.998281786941581  C 0 0.894043528064146  0.0400801603206414 0.801832760595645  0.120240480961924 0.721649484536082  L 0.721442885771543 0.120274914089347  C 0.801603206412826 0.0400916380297814  0.893787575150301 0  0.997995991983968 0  C 1.10220440881764 0  1.19438877755511 0.0400916380297814  1.27454909819639 0.120274914089347  L 6 4.84707903780069  L 10.7254509018036 0.120274914089347  C 10.8056112224449 0.0400916380297814  10.8977955911824 0  11.002004008016 0  C 11.1062124248497 0  11.1983967935872 0.0400916380297814  11.2785571142285 0.120274914089347  L 11.8797595190381 0.721649484536082  Z " fill-rule="nonzero" fill="#555555" stroke="none" transform="matrix(1 0 0 1 346 1253 )" />
  </g>
</svg>