<?xml version="1.0" encoding="utf-8"?>
<svg version="1.1" xmlns:xlink="http://www.w3.org/1999/xlink" width="30px" height="21px" xmlns="http://www.w3.org/2000/svg">
  <g transform="matrix(1 0 0 1 -269 -627 )">
    <path d="M 29.3470982142857 0.60703125  C 29.7823660714286 0.792968749999999  30 1.115625  30 1.575  L 30 19.425  C 30 19.884375  29.7823660714286 20.20703125  29.3470982142857 20.39296875  C 29.2020089285714 20.44765625  29.0625 20.475  28.9285714285714 20.475  C 28.6272321428571 20.475  28.3761160714286 20.37109375  28.1752232142857 20.16328125  L 21.4285714285714 13.5515625  L 21.4285714285714 16.275  C 21.4285714285714 17.5765625  20.95703125 18.689453125  20.0139508928571 19.613671875  C 19.0708705357143 20.537890625  17.9352678571429 21  16.6071428571429 21  L 4.82142857142857 21  C 3.49330357142857 21  2.35770089285714 20.537890625  1.41462053571429 19.613671875  C 0.471540178571429 18.689453125  0 17.5765625  0 16.275  L 0 4.725  C 0 3.4234375  0.471540178571429 2.310546875  1.41462053571429 1.386328125  C 2.35770089285714 0.462109374999997  3.49330357142857 0  4.82142857142857 0  L 16.6071428571429 0  C 17.9352678571429 0  19.0708705357143 0.462109374999997  20.0139508928571 1.386328125  C 20.95703125 2.310546875  21.4285714285714 3.4234375  21.4285714285714 4.725  L 21.4285714285714 7.43203125  L 28.1752232142857 0.836718749999999  C 28.3761160714286 0.628906249999999  28.6272321428571 0.525  28.9285714285714 0.525  C 29.0625 0.525  29.2020089285714 0.552343749999997  29.3470982142857 0.60703125  Z " fill-rule="nonzero" fill="#aaaaaa" stroke="none" transform="matrix(1 0 0 1 269 627 )" />
  </g>
</svg>