<?xml version="1.0" encoding="utf-8"?>
<svg version="1.1" xmlns:xlink="http://www.w3.org/1999/xlink" width="20px" height="15px" xmlns="http://www.w3.org/2000/svg">
  <g transform="matrix(1 0 0 1 -5 -5 )">
    <path d="M 1.42857142857143 7.5  C 2.67113095238095 9.41964285714286  4.25967261904762 10.8147321428571  6.19419642857143 11.6852678571429  L 7.06473214285714 10.1116071428571  C 6.41741071428571 9.64285714285714  5.91145833333333 9.05133928571429  5.546875 8.33705357142857  C 5.18229166666667 7.62276785714286  5 6.86755952380952  5 6.07142857142857  C 5 5.17113095238095  5.22693452380952 4.33407738095238  5.68080357142857 3.56026785714286  C 3.97693452380952 4.43080357142857  2.55952380952381 5.74404761904762  1.42857142857143 7.5  Z M 10.3794642857143 3.59375  C 10.483630952381 3.48958333333333  10.5357142857143 3.36309523809524  10.5357142857143 3.21428571428571  C 10.5357142857143 3.06547619047619  10.483630952381 2.93898809523809  10.3794642857143 2.83482142857143  C 10.2752976190476 2.73065476190476  10.1488095238095 2.67857142857143  10 2.67857142857143  C 9.06994047619048 2.67857142857143  8.27194940476191 3.01153273809524  7.60602678571429 3.67745535714286  C 6.94010416666667 4.34337797619048  6.60714285714286 5.14136904761905  6.60714285714286 6.07142857142857  C 6.60714285714286 6.22023809523809  6.65922619047619 6.34672619047619  6.76339285714286 6.45089285714286  C 6.86755952380952 6.55505952380952  6.99404761904762 6.60714285714286  7.14285714285714 6.60714285714286  C 7.29166666666667 6.60714285714286  7.41815476190476 6.55505952380952  7.52232142857143 6.45089285714286  C 7.62648809523809 6.34672619047619  7.67857142857143 6.22023809523809  7.67857142857143 6.07142857142857  C 7.67857142857143 5.43154761904762  7.90550595238095 4.88467261904762  8.359375 4.43080357142857  C 8.81324404761905 3.97693452380952  9.36011904761905 3.75  10 3.75  C 10.1488095238095 3.75  10.2752976190476 3.69791666666667  10.3794642857143 3.59375  Z M 14.4084821428571 0.781250000000001  C 14.5275297619048 0.855654761904761  14.5870535714286 0.95610119047619  14.5870535714286 1.08258928571429  C 14.5870535714286 1.13467261904762  14.5833333333333 1.16815476190476  14.5758928571429 1.18303571428572  C 13.7872023809524 2.58928571428572  12.6116071428571 4.69866071428572  11.0491071428571 7.51116071428572  C 9.48660714285714 10.3236607142857  8.31473214285714 12.4293154761905  7.53348214285714 13.828125  L 6.98660714285714 14.8214285714286  C 6.91220238095238 14.9404761904762  6.80803571428571 15  6.67410714285714 15  C 6.58482142857143 15  6.08630952380952 14.7395833333333  5.17857142857143 14.21875  C 5.05952380952381 14.1443452380952  5 14.0401785714286  5 13.90625  C 5 13.8169642857143  5.16369047619048 13.4933035714286  5.49107142857143 12.9352678571429  C 4.42708333333333 12.4516369047619  3.4468005952381 11.8080357142857  2.55022321428571 11.0044642857143  C 1.65364583333333 10.2008928571429  0.877976190476191 9.28943452380952  0.223214285714286 8.27008928571428  C 0.0744047619047619 8.03943452380952  0 7.78273809523809  0 7.5  C 0 7.2172619047619  0.0744047619047619 6.96056547619048  0.223214285714286 6.72991071428571  C 1.36160714285714 4.98139880952381  2.77529761904762 3.60119047619047  4.46428571428571 2.58928571428572  C 6.15327380952381 1.57738095238095  7.99851190476191 1.07142857142857  10 1.07142857142857  C 10.6622023809524 1.07142857142857  11.3318452380952 1.13467261904762  12.0089285714286 1.26116071428571  L 12.6116071428571 0.178571428571428  C 12.6860119047619 0.0595238095238093  12.7901785714286 0  12.9241071428571 0  C 12.9613095238095 0  13.0282738095238 0.0223214285714285  13.125 0.0669642857142855  C 13.2217261904762 0.111607142857142  13.3370535714286 0.169270833333331  13.4709821428571 0.239955357142858  C 13.6049107142857 0.31063988095238  13.7276785714286 0.379464285714286  13.8392857142857 0.446428571428572  C 13.9508928571429 0.513392857142857  14.0680803571429 0.582217261904759  14.1908482142857 0.652901785714285  C 14.3136160714286 0.723586309523808  14.3861607142857 0.766369047619047  14.4084821428571 0.781250000000001  Z M 14.9107142857143 5.13392857142857  C 14.9702380952381 5.46875  15 5.78125  15 6.07142857142857  C 15 7.10565476190476  14.7061011904762 8.04873511904762  14.1183035714286 8.90066964285714  C 13.530505952381 9.75260416666667  12.7529761904762 10.3645833333333  11.7857142857143 10.7366071428571  L 14.9107142857143 5.13392857142857  Z M 19.7767857142857 6.72991071428571  C 19.9255952380952 6.9828869047619  20 7.23958333333333  20 7.5  C 20 7.76041666666667  19.9255952380952 8.01711309523809  19.7767857142857 8.27008928571428  C 19.4866071428571 8.74627976190476  19.0811011904762 9.28571428571429  18.5602678571429 9.88839285714286  C 17.4441964285714 11.1681547619048  16.1514136904762 12.1614583333333  14.6819196428571 12.8683035714286  C 13.2124255952381 13.5751488095238  11.6517857142857 13.9285714285714  10 13.9285714285714  L 10.8258928571429 12.4553571428571  C 12.4032738095238 12.3214285714286  13.8634672619048 11.811755952381  15.2064732142857 10.9263392857143  C 16.5494791666667 10.0409226190476  17.671130952381 8.89880952380952  18.5714285714286 7.5  C 17.7157738095238 6.16815476190476  16.6666666666667 5.07440476190476  15.4241071428571 4.21875  L 16.1272321428571 2.96875  C 16.8340773809524 3.44494047619047  17.5130208333333 4.0141369047619  18.1640625 4.67633928571428  C 18.8151041666667 5.33854166666667  19.3526785714286 6.02306547619048  19.7767857142857 6.72991071428571  Z " fill-rule="nonzero" fill="#7f7f7f" stroke="none" transform="matrix(1 0 0 1 5 5 )" />
  </g>
</svg>