<?xml version="1.0" standalone="no"?><!DOCTYPE svg PUBLIC "-//W3C//DTD SVG 1.1//EN" "http://www.w3.org/Graphics/SVG/1.1/DTD/svg11.dtd"><svg t="1621039410151" class="icon" viewBox="0 0 1024 1024" version="1.1" xmlns="http://www.w3.org/2000/svg" p-id="1228" xmlns:xlink="http://www.w3.org/1999/xlink" width="200" height="200"><defs><style type="text/css"></style></defs><path d="M406 419.8c-15.6 0-28.3 12.3-28.9 27.9-0.4 10.6 5 20.5 14.1 25.9 9.1 5.4 20.4 5.4 29.5 0 9.1-5.4 14.5-15.3 14.1-25.9-0.4-15.6-13.2-27.9-28.8-27.9zM512 297.4c-43.8 0-80.9 28.8-93.6 68.4h187.1c-12.6-39.6-49.7-68.4-93.5-68.4z" p-id="1229" fill="#333333"></path><path d="M512 63.5C264.3 63.5 63.5 264.3 63.5 512S264.3 960.5 512 960.5 960.5 759.7 960.5 512 759.7 63.5 512 63.5z m184.1 679.7H327.9c-28.2 0-48-25.5-44.3-55.9l42.5-286.4c2.4-19.6 22-35.1 43.8-35.1h10.6c13.6-60.1 67.3-104.9 131.5-105 64.2 0.1 117.9 44.9 131.5 105h10.6c21.8 0 41.4 15.5 43.8 35.1l42.5 286.4c3.7 30.5-16 55.9-44.3 55.9z" p-id="1230" fill="#333333"></path><path d="M619.4 418.7c-10.6-0.4-20.5 5-25.9 14.1-5.4 9.1-5.4 20.4 0 29.5 5.4 9.1 15.3 14.5 25.9 14.1 15.6-0.6 27.9-13.3 27.9-28.9 0-15.4-12.3-28.2-27.9-28.8z" p-id="1231" fill="#333333"></path></svg>