<?xml version="1.0" encoding="utf-8"?>
<svg version="1.1" xmlns:xlink="http://www.w3.org/1999/xlink" width="20px" height="14px" xmlns="http://www.w3.org/2000/svg">
  <defs>
    <mask fill="white" id="clip34">
      <path d="M 19.5647321428571 0.4046875  C 19.8549107142857 0.528645833333333  20 0.74375  20 1.05  L 20 12.95  C 20 13.25625  19.8549107142857 13.4713541666667  19.5647321428571 13.5953125  C 19.468005952381 13.6317708333333  19.375 13.65  19.2857142857143 13.65  C 19.0848214285714 13.65  18.9174107142857 13.5807291666667  18.7834821428571 13.4421875  L 14.2857142857143 9.034375  L 14.2857142857143 10.85  C 14.2857142857143 11.7177083333333  13.9713541666667 12.4596354166667  13.3426339285714 13.07578125  C 12.7139136904762 13.6919270833333  11.9568452380952 14  11.0714285714286 14  L 3.21428571428571 14  C 2.32886904761905 14  1.5718005952381 13.6919270833333  0.943080357142857 13.07578125  C 0.314360119047619 12.4596354166667  0 11.7177083333333  0 10.85  L 0 3.15  C 0 2.28229166666666  0.314360119047619 1.54036458333333  0.943080357142857 0.92421875  C 1.5718005952381 0.308072916666665  2.32886904761905 0  3.21428571428571 0  L 11.0714285714286 0  C 11.9568452380952 0  12.7139136904762 0.308072916666665  13.3426339285714 0.92421875  C 13.9713541666667 1.54036458333333  14.2857142857143 2.28229166666666  14.2857142857143 3.15  L 14.2857142857143 4.9546875  L 18.7834821428571 0.557812499999999  C 18.9174107142857 0.419270833333333  19.0848214285714 0.35  19.2857142857143 0.35  C 19.375 0.35  19.468005952381 0.368229166666664  19.5647321428571 0.4046875  Z " fill-rule="evenodd" />
    </mask>
  </defs>
  <g transform="matrix(1 0 0 1 -5 -405 )">
    <path d="M 19.5647321428571 0.4046875  C 19.8549107142857 0.528645833333333  20 0.74375  20 1.05  L 20 12.95  C 20 13.25625  19.8549107142857 13.4713541666667  19.5647321428571 13.5953125  C 19.468005952381 13.6317708333333  19.375 13.65  19.2857142857143 13.65  C 19.0848214285714 13.65  18.9174107142857 13.5807291666667  18.7834821428571 13.4421875  L 14.2857142857143 9.034375  L 14.2857142857143 10.85  C 14.2857142857143 11.7177083333333  13.9713541666667 12.4596354166667  13.3426339285714 13.07578125  C 12.7139136904762 13.6919270833333  11.9568452380952 14  11.0714285714286 14  L 3.21428571428571 14  C 2.32886904761905 14  1.5718005952381 13.6919270833333  0.943080357142857 13.07578125  C 0.314360119047619 12.4596354166667  0 11.7177083333333  0 10.85  L 0 3.15  C 0 2.28229166666666  0.314360119047619 1.54036458333333  0.943080357142857 0.92421875  C 1.5718005952381 0.308072916666665  2.32886904761905 0  3.21428571428571 0  L 11.0714285714286 0  C 11.9568452380952 0  12.7139136904762 0.308072916666665  13.3426339285714 0.92421875  C 13.9713541666667 1.54036458333333  14.2857142857143 2.28229166666666  14.2857142857143 3.15  L 14.2857142857143 4.9546875  L 18.7834821428571 0.557812499999999  C 18.9174107142857 0.419270833333333  19.0848214285714 0.35  19.2857142857143 0.35  C 19.375 0.35  19.468005952381 0.368229166666664  19.5647321428571 0.4046875  Z " fill-rule="nonzero" fill="#000000" stroke="none" fill-opacity="0.164705882352941" transform="matrix(1 0 0 1 5 405 )" />
    <path d="M 19.5647321428571 0.4046875  C 19.8549107142857 0.528645833333333  20 0.74375  20 1.05  L 20 12.95  C 20 13.25625  19.8549107142857 13.4713541666667  19.5647321428571 13.5953125  C 19.468005952381 13.6317708333333  19.375 13.65  19.2857142857143 13.65  C 19.0848214285714 13.65  18.9174107142857 13.5807291666667  18.7834821428571 13.4421875  L 14.2857142857143 9.034375  L 14.2857142857143 10.85  C 14.2857142857143 11.7177083333333  13.9713541666667 12.4596354166667  13.3426339285714 13.07578125  C 12.7139136904762 13.6919270833333  11.9568452380952 14  11.0714285714286 14  L 3.21428571428571 14  C 2.32886904761905 14  1.5718005952381 13.6919270833333  0.943080357142857 13.07578125  C 0.314360119047619 12.4596354166667  0 11.7177083333333  0 10.85  L 0 3.15  C 0 2.28229166666666  0.314360119047619 1.54036458333333  0.943080357142857 0.92421875  C 1.5718005952381 0.308072916666665  2.32886904761905 0  3.21428571428571 0  L 11.0714285714286 0  C 11.9568452380952 0  12.7139136904762 0.308072916666665  13.3426339285714 0.92421875  C 13.9713541666667 1.54036458333333  14.2857142857143 2.28229166666666  14.2857142857143 3.15  L 14.2857142857143 4.9546875  L 18.7834821428571 0.557812499999999  C 18.9174107142857 0.419270833333333  19.0848214285714 0.35  19.2857142857143 0.35  C 19.375 0.35  19.468005952381 0.368229166666664  19.5647321428571 0.4046875  Z " stroke-width="2" stroke="#797979" fill="none" transform="matrix(1 0 0 1 5 405 )" mask="url(#clip34)" />
  </g>
</svg>