<?xml version="1.0" encoding="utf-8"?>
<svg version="1.1" xmlns:xlink="http://www.w3.org/1999/xlink" width="12px" height="12px" viewBox="29 225  12 12" xmlns="http://www.w3.org/2000/svg">
  <path d="M 35 225  C 38.36 225  41 227.64  41 231  C 41 234.36  38.36 237  35 237  C 31.64 237  29 234.36  29 231  C 29 227.64  31.64 225  35 225  Z " fill-rule="nonzero" fill="#ffffff" stroke="none" />
  <path d="M 35 225.5  C 38.08 225.5  40.5 227.92  40.5 231  C 40.5 234.08  38.08 236.5  35 236.5  C 31.92 236.5  29.5 234.08  29.5 231  C 29.5 227.92  31.92 225.5  35 225.5  Z " stroke-width="1" stroke="#797979" fill="none" />
  <path d="M 35 234  C 33.32 234  32 232.68  32 231  C 32 229.32  33.32 228  35 228  C 36.68 228  38 229.32  38 231  C 38 232.68  36.68 234  35 234  " fill-rule="nonzero" fill="#797979" stroke="none" />
</svg>