<?xml version="1.0" encoding="utf-8"?>
<svg version="1.1" xmlns:xlink="http://www.w3.org/1999/xlink" width="19px" height="20px" xmlns="http://www.w3.org/2000/svg">
  <g transform="matrix(1 0 0 1 0 -131 )">
    <path d="M 18.6735395189003 1.20240480961924  C 18.8911798396335 1.33600534402137  19 1.48964595858383  19 1.66332665330661  C 19 1.83700734802939  18.8911798396335 1.99064796259185  18.6735395189003 2.12424849699399  L 5.84364261168385 10  L 18.6735395189003 17.875751503006  C 18.8911798396335 18.0093520374081  19 18.1629926519706  19 18.3366733466934  C 19 18.5103540414162  18.8911798396335 18.6639946559786  18.6735395189003 18.7975951903808  L 17.0412371134021 19.7995991983968  C 16.823596792669 19.9331997327989  16.5733104238259 20  16.2903780068729 20  C 16.0074455899198 20  15.7571592210767 19.9331997327989  15.5395189003436 19.7995991983968  L 0.326460481099656 10.4609218436874  C 0.108820160366552 10.3273213092852  0 10.1736806947228  0 10  C 0 9.82631930527722  0.108820160366552 9.67267869071476  0.326460481099656 9.53907815631263  L 15.5395189003436 0.200400801603207  C 15.7571592210767 0.0668002672010681  16.0074455899198 0  16.2903780068729 0  C 16.5733104238259 0  16.823596792669 0.0668002672010681  17.0412371134021 0.200400801603207  L 18.6735395189003 1.20240480961924  Z " fill-rule="nonzero" fill="#8c8c8c" stroke="none" transform="matrix(1 0 0 1 0 131 )" />
  </g>
</svg>