<?xml version="1.0" standalone="no"?><!DOCTYPE svg PUBLIC "-//W3C//DTD SVG 1.1//EN" "http://www.w3.org/Graphics/SVG/1.1/DTD/svg11.dtd"><svg t="1621157115257" class="icon" viewBox="0 0 1024 1024" version="1.1" xmlns="http://www.w3.org/2000/svg" p-id="13885" xmlns:xlink="http://www.w3.org/1999/xlink" width="200" height="200"><defs><style type="text/css"></style></defs><path d="M938.496 102.4H83.968C65.792 102.4 51.2 116.992 51.2 135.168v753.408c0 18.432 14.592 33.024 32.768 33.024h854.272c18.176 0 32.768-14.592 32.768-32.768V135.168c0.256-18.176-14.336-32.768-32.512-32.768z m-616.96 152.576c38.4 0 69.888 31.232 69.888 69.888 0 38.4-31.232 69.888-69.888 69.888-38.4 0-69.888-31.232-69.888-69.888s31.232-69.888 69.888-69.888z m560.384 512a8.96 8.96 0 0 1-5.632 2.048H145.92c-4.864 0-8.704-3.84-8.704-8.704 0-2.048 0.768-4.096 2.048-5.632l185.856-220.416c3.072-3.584 8.704-4.096 12.288-1.024l1.024 1.024 108.544 128.768 172.544-204.544c3.072-3.584 8.704-4.096 12.288-1.024l1.024 1.024 250.368 296.192c2.816 3.584 2.56 9.216-1.28 12.288z" p-id="13886"></path></svg>