<?xml version="1.0" standalone="no"?><!DOCTYPE svg PUBLIC "-//W3C//DTD SVG 1.1//EN" "http://www.w3.org/Graphics/SVG/1.1/DTD/svg11.dtd"><svg t="1621156625669" class="icon" viewBox="0 0 1024 1024" version="1.1" xmlns="http://www.w3.org/2000/svg" p-id="6977" xmlns:xlink="http://www.w3.org/1999/xlink" width="200" height="200"><defs><style type="text/css"></style></defs><path d="M498.957 0.87C309.03 0.87 155.02 155.713 155.02 346.86c0 95.478 38.551 181.96 100.746 244.605l243.19 244.667L742.21 591.465a345.927 345.927 0 0 0 100.682-244.54C842.893 155.778 688.947 0.933 498.957 0.933z m0 499.68a153.302 153.302 0 0 1-152.918-153.69v-0.127a153.238 153.238 0 0 1 152.854-153.689h0.064a153.302 153.302 0 0 1 152.917 153.689v0.128A153.238 153.238 0 0 1 499.15 500.485h-0.192zM346.039 948.571a152.917 64.25 0 1 0 305.835 0 152.917 64.25 0 1 0-305.835 0z" fill="#333333" p-id="6978"></path></svg>