<svg t="1620352421863" class="icon" viewBox="0 0 1024 1024" version="1.1" xmlns="http://www.w3.org/2000/svg" p-id="828" width="200" height="200"><path d="M510.07799856 510.05166975m-505.72334413 0a505.7233441 505.7233441 0 1 0 1011.44668822 0 505.7233441 505.7233441 0 1 0-1011.44668822 0Z" fill="#333333" p-id="829"></path><path d="M500.17837455 462.08061952c-9.24140429 0-18.53546618-2.81718021-26.51308872-8.66217097l-182.40583752-133.30264952c-20.06253583-14.66513446-24.43311452-42.83693674-9.76798005-62.89947253 14.66513446-20.11519341 42.81060795-24.48577205 62.8994726-9.76798006l182.37950872 133.30264952c20.08886464 14.66513446 24.45944326 42.83693674 9.79430887 62.89947253-8.84647248 12.03225573-22.51111303 18.43015101-36.3863839 18.43015103z" fill="#FFFFFF" p-id="830"></path><path d="M519.95129375 462.08061952c-13.87527085 0-27.53991136-6.39789526-36.3600551-18.4564798-14.69146323-20.06253583-10.2945558-48.23433812 9.7943088-62.89947257l182.40583757-133.30264949c20.00987822-14.66513446 48.18168052-10.34721338 62.89947257 9.79430884 14.69146323 20.06253583 10.2945558 48.23433812-9.7943088 62.89947253l-182.40583759 133.30264952a44.83529169 44.83529169 0 0 1-26.53941745 8.66217097z" fill="#FFFFFF" p-id="831"></path><path d="M654.54405381 491.46354599H370.3247962c-24.88070387 0-45.02222607-20.1415222-45.02222605-45.0222261 0-24.88070387 20.1415222-45.02222607 45.02222605-45.02222603h284.21925761c24.85437509 0 45.02222607 20.1415222 45.02222604 45.02222603 0 24.88070387-20.16785099 45.02222607-45.02222604 45.0222261zM681.55738941 619.52676683H326.27673522c-24.88070387 0-45.02222607-20.1415222-45.02222604-45.02222606 0-24.88070387 20.1415222-45.02222607 45.02222604-45.02222608H681.55738941c24.85437509 0 45.02222607 20.1415222 45.02222607 45.02222608 0 24.85437509-20.16785099 45.02222607-45.02222607 45.02222606z" fill="#FFFFFF" p-id="832"></path><path d="M503.89073355 781.36982163c-24.85437509 0-45.02222607-20.1415222-45.02222607-45.02222608V469.55799506c0-24.88070387 20.16785099-45.02222607 45.02222607-45.02222608s45.02222607 20.1415222 45.02222609 45.02222608v266.78960049c0 24.85437509-20.16785099 45.02222607-45.02222609 45.02222608z" fill="#FFFFFF" p-id="833"></path></svg>