<?xml version="1.0" encoding="utf-8"?>
<svg version="1.1" xmlns:xlink="http://www.w3.org/1999/xlink" width="8px" height="8px" xmlns="http://www.w3.org/2000/svg">
  <g transform="matrix(1 0 0 1 -348 -103 )">
    <path d="M 7.46354166666667 1.9921875  C 7.82118055555555 2.60503472222222  8 3.27430555555555  8 4  C 8 4.72569444444444  7.82118055555555 5.39496527777778  7.46354166666667 6.0078125  C 7.10590277777778 6.62065972222222  6.62065972222222 7.10590277777778  6.0078125 7.46354166666667  C 5.39496527777778 7.82118055555556  4.72569444444444 8  4 8  C 3.27430555555556 8  2.60503472222222 7.82118055555556  1.9921875 7.46354166666667  C 1.37934027777778 7.10590277777778  0.894097222222222 6.62065972222222  0.536458333333333 6.0078125  C 0.178819444444444 5.39496527777778  0 4.72569444444444  0 4  C 0 3.27430555555555  0.178819444444444 2.60503472222222  0.536458333333333 1.9921875  C 0.894097222222222 1.37934027777778  1.37934027777778 0.894097222222221  1.9921875 0.536458333333333  C 2.60503472222222 0.178819444444444  3.27430555555556 0  4 0  C 4.72569444444444 0  5.39496527777778 0.178819444444444  6.0078125 0.536458333333333  C 6.62065972222222 0.894097222222221  7.10590277777778 1.37934027777778  7.46354166666667 1.9921875  Z " fill-rule="nonzero" fill="#f71f39" stroke="none" transform="matrix(1 0 0 1 348 103 )" />
  </g>
</svg>