<?xml version="1.0" encoding="utf-8"?>
<svg version="1.1" xmlns:xlink="http://www.w3.org/1999/xlink" width="15px" height="15px" xmlns="http://www.w3.org/2000/svg">
  <g transform="matrix(1 0 0 1 -345 -168 )">
    <path d="M 13.994140625 3.7353515625  C 14.6647135416667 4.88444010416667  15 6.13932291666666  15 7.5  C 15 8.86067708333333  14.6647135416667 10.1155598958333  13.994140625 11.2646484375  C 13.3235677083333 12.4137369791667  12.4137369791667 13.3235677083333  11.2646484375 13.994140625  C 10.1155598958333 14.6647135416667  8.86067708333333 15  7.5 15  C 6.13932291666667 15  4.88444010416667 14.6647135416667  3.7353515625 13.994140625  C 2.58626302083333 13.3235677083333  1.67643229166667 12.4137369791667  1.005859375 11.2646484375  C 0.335286458333333 10.1155598958333  0 8.86067708333333  0 7.5  C 0 6.13932291666666  0.335286458333333 4.88444010416667  1.005859375 3.7353515625  C 1.67643229166667 2.58626302083333  2.58626302083333 1.67643229166667  3.7353515625 1.005859375  C 4.88444010416667 0.335286458333332  6.13932291666667 0  7.5 0  C 8.86067708333333 0  10.1155598958333 0.335286458333332  11.2646484375 1.005859375  C 12.4137369791667 1.67643229166667  13.3235677083333 2.58626302083333  13.994140625 3.7353515625  Z " fill-rule="nonzero" fill="#f71f39" stroke="none" transform="matrix(1 0 0 1 345 168 )" />
  </g>
</svg>