<?xml version="1.0" encoding="utf-8"?>
<svg version="1.1" xmlns:xlink="http://www.w3.org/1999/xlink" width="19px" height="31px" xmlns="http://www.w3.org/2000/svg">
  <g transform="matrix(1 0 0 1 -356 -199 )">
    <path d="M 18.6735395189003 14.7855711422846  C 18.8911798396335 14.9926519706079  19 15.2307949231797  19 15.5  C 19 15.7692050768203  18.8911798396335 16.0073480293921  18.6735395189003 16.2144288577154  L 3.46048109965636 30.689378757515  C 3.24284077892325 30.8964595858383  2.99255441008018 31  2.70962199312715 31  C 2.42668957617411 31  2.17640320733104 30.8964595858383  1.95876288659794 30.689378757515  L 0.326460481099656 29.1362725450902  C 0.108820160366552 28.9291917167669  0 28.6910487641951  0 28.4218436873748  C 0 28.1526386105544  0.108820160366552 27.9144956579826  0.326460481099656 27.7074148296593  L 13.1563573883162 15.5  L 0.326460481099656 3.29258517034068  C 0.108820160366552 3.08550434201737  0 2.84736138944556  0 2.57815631262525  C 0 2.30895123580494  0.108820160366552 2.07080828323313  0.326460481099656 1.86372745490982  L 1.95876288659794 0.31062124248497  C 2.17640320733104 0.103540414161656  2.42668957617411 0  2.70962199312715 0  C 2.99255441008018 0  3.24284077892325 0.103540414161656  3.46048109965636 0.31062124248497  L 18.6735395189003 14.7855711422846  Z " fill-rule="nonzero" fill="#8c8c8c" stroke="none" transform="matrix(1 0 0 1 356 199 )" />
  </g>
</svg>