<?xml version="1.0" encoding="utf-8"?>
<svg version="1.1" xmlns:xlink="http://www.w3.org/1999/xlink" width="10px" height="19px" xmlns="http://www.w3.org/2000/svg">
  <g transform="matrix(1 0 0 1 -348 -503 )">
    <path d="M 9.82817869415807 9.06212424849699  C 9.94272623138603 9.18904475617902  10 9.33500334001336  10 9.5  C 10 9.66499665998664  9.94272623138603 9.81095524382097  9.82817869415807 9.93787575150301  L 1.8213058419244 18.809619238477  C 1.70675830469645 18.936539746159  1.57502863688431 19  1.42611683848797 19  C 1.27720504009164 19  1.1454753722795 18.936539746159  1.03092783505155 18.809619238477  L 0.171821305841924 17.8577154308617  C 0.0572737686139748 17.7307949231797  0 17.5848363393454  0 17.4198396793587  C 0 17.2548430193721  0.0572737686139748 17.1088844355377  0.171821305841924 16.9819639278557  L 6.92439862542955 9.5  L 0.171821305841924 2.01803607214429  C 0.0572737686139748 1.89111556446226  0 1.74515698062792  0 1.58016032064128  C 0 1.41516366065464  0.0572737686139748 1.26920507682031  0.171821305841924 1.14228456913828  L 1.03092783505155 0.190380761523046  C 1.1454753722795 0.0634602538410147  1.27720504009164 0  1.42611683848797 0  C 1.57502863688431 0  1.70675830469645 0.0634602538410147  1.8213058419244 0.190380761523046  L 9.82817869415807 9.06212424849699  Z " fill-rule="nonzero" fill="#f2f2f2" stroke="none" transform="matrix(1 0 0 1 348 503 )" />
  </g>
</svg>