<svg t="1620632239903" class="icon" viewBox="0 0 1024 1024" version="1.1" xmlns="http://www.w3.org/2000/svg" p-id="10407" width="200" height="200"><path d="M960 320H64v-64a64 64 0 0 1 64-64h87.146667A31.957333 31.957333 0 0 1 213.333333 181.333333v-42.666666a32 32 0 0 1 64 0v42.666666c0 3.733333-0.64 7.338667-1.813333 10.666667h472.96A31.957333 31.957333 0 0 1 746.666667 181.333333v-42.666666a32 32 0 0 1 64 0v42.666666c0 3.733333-0.64 7.338667-1.813334 10.666667H896a64 64 0 0 1 64 64v64z m0 64v426.666667a64 64 0 0 1-64 64H128a64 64 0 0 1-64-64V384h896zM202.666667 469.333333a32 32 0 0 0 0 64h192a32 32 0 0 0 0-64h-192z" p-id="10408" fill="#ffffff"></path></svg>