<?xml version="1.0" encoding="utf-8"?>
<svg version="1.1" xmlns:xlink="http://www.w3.org/1999/xlink" width="20px" height="20px" xmlns="http://www.w3.org/2000/svg">
  <g transform="matrix(1 0 0 1 -340 -632 )">
    <path d="M 19.2861126603458 0  C 19.4348391894404 0  19.5686930656256 0.0409226190476208  19.6876742889013 0.122767857142858  C 19.9330730619074 0.301339285714286  20.0334634690463 0.539434523809523  19.9888455103179 0.837053571428572  L 17.1332961517011 17.9799107142857  C 17.0961145194274 18.1956845238095  16.9771332961517 18.3630952380952  16.776352481874 18.4821428571429  C 16.6722439115077 18.5416666666667  16.5569808514594 18.5714285714286  16.4305633017289 18.5714285714286  C 16.3487637107269 18.5714285714286  16.2595277932701 18.5528273809524  16.1628555493586 18.515625  L 11.1098717233687 16.4508928571429  L 8.41048522030117 19.7433035714286  C 8.27663134411601 19.9144345238095  8.09444134597509 20  7.86391522587842 20  C 7.76724298196691 20  7.68544339096486 19.985119047619  7.61851645287228 19.9553571428571  C 7.47722625023239 19.9032738095238  7.36382227179773 19.8158482142857  7.27830451756832 19.6930803571429  C 7.19278676333891 19.5703125  7.1500278862242 19.4345238095238  7.1500278862242 19.2857142857143  L 7.1500278862242 15.390625  L 16.7875069715561 3.57142857142857  L 4.86335750139431 13.8950892857143  L 0.457334076965979 12.0870535714286  C 0.182189998140918 11.9828869047619  0.0334634690462911 11.7782738095238  0.011154489682097 11.4732142857143  C -0.00371816322736568 11.1755952380952  0.115263060048336 10.9561011904762  0.368098159509202 10.8147321428571  L 18.9291689905187 0.100446428571428  C 19.0407138873397 0.0334821428571419  19.1596951106154 0  19.2861126603458 0  Z " fill-rule="nonzero" fill="#f71f39" stroke="none" transform="matrix(1 0 0 1 340 632 )" />
  </g>
</svg>