<?xml version="1.0" encoding="utf-8"?>
<svg version="1.1" xmlns:xlink="http://www.w3.org/1999/xlink" width="20px" height="17px" xmlns="http://www.w3.org/2000/svg">
  <g transform="matrix(1 0 0 1 -32 -221 )">
    <path d="M 7.23557692307692 14.3678977272727  C 7.5400641025641 14.6737689393939  7.69230769230769 15.0359848484848  7.69230769230769 15.4545454545455  C 7.69230769230769 15.8731060606061  7.5400641025641 16.235321969697  7.23557692307692 16.5411931818182  C 6.93108974358974 16.8470643939394  6.57051282051282 17  6.15384615384615 17  C 5.73717948717949 17  5.37660256410256 16.8470643939394  5.07211538461538 16.5411931818182  C 4.7676282051282 16.235321969697  4.61538461538462 15.8731060606061  4.61538461538462 15.4545454545455  C 4.61538461538462 15.0359848484848  4.7676282051282 14.6737689393939  5.07211538461538 14.3678977272727  C 5.37660256410256 14.0620265151515  5.73717948717949 13.9090909090909  6.15384615384615 13.9090909090909  C 6.57051282051282 13.9090909090909  6.93108974358974 14.0620265151515  7.23557692307692 14.3678977272727  Z M 18.0048076923077 14.3678977272727  C 18.3092948717949 14.6737689393939  18.4615384615385 15.0359848484848  18.4615384615385 15.4545454545455  C 18.4615384615385 15.8731060606061  18.3092948717949 16.235321969697  18.0048076923077 16.5411931818182  C 17.7003205128205 16.8470643939394  17.3397435897436 17  16.9230769230769 17  C 16.5064102564103 17  16.1458333333333 16.8470643939394  15.8413461538462 16.5411931818182  C 15.536858974359 16.235321969697  15.3846153846154 15.8731060606061  15.3846153846154 15.4545454545455  C 15.3846153846154 15.0359848484848  15.536858974359 14.6737689393939  15.8413461538462 14.3678977272727  C 16.1458333333333 14.0620265151515  16.5064102564103 13.9090909090909  16.9230769230769 13.9090909090909  C 17.3397435897436 13.9090909090909  17.7003205128205 14.0620265151515  18.0048076923077 14.3678977272727  Z M 19.7716346153846 1.77485795454545  C 19.9238782051282 1.92779356060606  20 2.10890151515151  20 2.31818181818182  L 20 8.5  C 20 8.69318181818182  19.9338942307692 8.86422821969697  19.8016826923077 9.01313920454546  C 19.6694711538462 9.16205018939394  19.5072115384615 9.24857954545454  19.3149038461538 9.27272727272727  L 6.76682692307692 10.7457386363636  C 6.87099358974359 11.2286931818182  6.92307692307692 11.5104166666667  6.92307692307692 11.5909090909091  C 6.92307692307692 11.719696969697  6.82692307692308 11.9772727272727  6.63461538461538 12.3636363636364  L 17.6923076923077 12.3636363636364  C 17.900641025641 12.3636363636364  18.0809294871795 12.4401041666667  18.2331730769231 12.5930397727273  C 18.3854166666667 12.7459753787879  18.4615384615385 12.9270833333333  18.4615384615385 13.1363636363636  C 18.4615384615385 13.3456439393939  18.3854166666667 13.5267518939394  18.2331730769231 13.6796875  C 18.0809294871795 13.8326231060606  17.900641025641 13.9090909090909  17.6923076923077 14  L 5.38461538461538 14  C 5.17628205128205 13.9090909090909  4.99599358974359 13.8326231060606  4.84375 13.6796875  C 4.69150641025641 13.5267518939394  4.61538461538462 13.3456439393939  4.61538461538462 13.1363636363636  C 4.61538461538462 13.047821969697  4.6474358974359 12.9210464015152  4.71153846153846 12.7560369318182  C 4.77564102564103 12.5910274621212  4.83974358974359 12.4461410984848  4.90384615384615 12.3213778409091  C 4.96794871794872 12.1966145833333  5.05408653846154 12.0356297348485  5.16225961538462 11.8384232954545  C 5.27043269230769 11.6412168560606  5.33253205128205 11.522490530303  5.34855769230769 11.4822443181818  L 3.22115384615385 1.54545454545455  L 0.769230769230769 1.54545454545455  C 0.560897435897436 1.54545454545455  0.380608974358974 1.46898674242424  0.228365384615385 1.31605113636364  C 0.0761217948717949 1.16311553030303  0 0.982007575757575  0 0.772727272727272  C 0 0.563446969696969  0.0761217948717949 0.382339015151513  0.228365384615385 0.22940340909091  C 0.380608974358974 0.0764678030303014  0.560897435897436 0  0.769230769230769 0  L 3.84615384615385 0  C 3.97435897435897 0  4.08854166666667 0.0261600378787867  4.18870192307692 0.078480113636364  C 4.28886217948718 0.130800189393939  4.36698717948718 0.193181818181818  4.42307692307692 0.265625  C 4.47916666666667 0.338068181818182  4.53125 0.436671401515149  4.57932692307692 0.56143465909091  C 4.62740384615385 0.686197916666665  4.65945512820513 0.790838068181818  4.67548076923077 0.875355113636364  C 4.69150641025641 0.95987215909091  4.71354166666667 1.07859848484848  4.74158653846154 1.23153409090909  C 4.76963141025641 1.38446969696969  4.78766025641026 1.48910984848485  4.79567307692308 1.54545454545455  L 19.2307692307692 1.54545454545455  C 19.4391025641026 1.54545454545455  19.619391025641 1.62192234848485  19.7716346153846 1.77485795454545  Z " fill-rule="nonzero" fill="#ffffff" stroke="none" transform="matrix(1 0 0 1 32 221 )" />
  </g>
</svg>