<?xml version="1.0" encoding="utf-8"?>
<svg version="1.1" xmlns:xlink="http://www.w3.org/1999/xlink" width="10px" height="18px" xmlns="http://www.w3.org/2000/svg">
  <g transform="matrix(1 0 0 1 -347 -150 )">
    <path d="M 9.82817869415807 8.58517034068136  C 9.94272623138603 8.70541082164329  10 8.8436873747495  10 9  C 10 9.1563126252505  9.94272623138603 9.29458917835671  9.82817869415807 9.41482965931864  L 1.8213058419244 17.8196392785571  C 1.70675830469645 17.939879759519  1.57502863688431 18  1.42611683848797 18  C 1.27720504009164 18  1.1454753722795 17.939879759519  1.03092783505155 17.8196392785571  L 0.171821305841924 16.9178356713427  C 0.0572737686139748 16.7975951903808  0 16.6593186372745  0 16.503006012024  C 0 16.3466933867735  0.0572737686139748 16.2084168336673  0.171821305841924 16.0881763527054  L 6.92439862542955 9  L 0.171821305841924 1.91182364729459  C 0.0572737686139748 1.79158316633266  0 1.65330661322645  0 1.49699398797595  C 0 1.34068136272545  0.0572737686139748 1.20240480961924  0.171821305841924 1.08216432865731  L 1.03092783505155 0.180360721442886  C 1.1454753722795 0.0601202404809613  1.27720504009164 0  1.42611683848797 0  C 1.57502863688431 0  1.70675830469645 0.0601202404809613  1.8213058419244 0.180360721442886  L 9.82817869415807 8.58517034068136  Z " fill-rule="nonzero" fill="#aaaaaa" stroke="none" transform="matrix(1 0 0 1 347 150 )" />
  </g>
</svg>