<?xml version="1.0" encoding="utf-8"?>
<svg version="1.1" xmlns:xlink="http://www.w3.org/1999/xlink" width="19px" height="20px" xmlns="http://www.w3.org/2000/svg">
  <g transform="matrix(1 0 0 1 -356 -131 )">
    <path d="M 18.6735395189003 9.53907815631263  C 18.8911798396335 9.67267869071476  19 9.82631930527722  19 10  C 19 10.1736806947228  18.8911798396335 10.3273213092852  18.6735395189003 10.4609218436874  L 3.46048109965636 19.7995991983968  C 3.24284077892325 19.9331997327989  2.99255441008018 20  2.70962199312715 20  C 2.42668957617411 20  2.17640320733104 19.9331997327989  1.95876288659794 19.7995991983968  L 0.326460481099656 18.7975951903808  C 0.108820160366552 18.6639946559786  0 18.5103540414162  0 18.3366733466934  C 0 18.1629926519706  0.108820160366552 18.0093520374081  0.326460481099656 17.875751503006  L 13.1563573883162 10  L 0.326460481099656 2.12424849699399  C 0.108820160366552 1.99064796259185  0 1.83700734802939  0 1.66332665330661  C 0 1.48964595858383  0.108820160366552 1.33600534402137  0.326460481099656 1.20240480961924  L 1.95876288659794 0.200400801603207  C 2.17640320733104 0.0668002672010681  2.42668957617411 0  2.70962199312715 0  C 2.99255441008018 0  3.24284077892325 0.0668002672010681  3.46048109965636 0.200400801603207  L 18.6735395189003 9.53907815631263  Z " fill-rule="nonzero" fill="#8c8c8c" stroke="none" transform="matrix(1 0 0 1 356 131 )" />
  </g>
</svg>