<svg t="1619778876850" class="icon" viewBox="0 0 1024 1024" version="1.1" xmlns="http://www.w3.org/2000/svg" p-id="2387" width="200" height="200"><path d="M714.666667 533.333333a181.333333 181.333333 0 0 1 181.248 175.893334L896 714.666667v64a117.333333 117.333333 0 0 1-112.618667 117.248L778.666667 896h-512a117.333333 117.333333 0 0 1-117.248-112.618667L149.333333 778.666667v-64a181.333333 181.333333 0 0 1 175.893334-181.248L330.666667 533.333333h384z m0 64h-384a117.333333 117.333333 0 0 0-117.248 112.618667L213.333333 714.666667v64a53.333333 53.333333 0 0 0 49.834667 53.226666L266.666667 832h42.666666v-74.666667a32 32 0 0 1 63.850667-3.072l0.149333 3.072V832h298.666667v-74.666667a32 32 0 0 1 63.850667-3.072l0.149333 3.072V832h42.666667a53.333333 53.333333 0 0 0 53.226666-49.834667L832 778.666667v-64a117.333333 117.333333 0 0 0-112.618667-117.248L714.666667 597.333333z m-192-448a181.333333 181.333333 0 1 1 0 362.666667 181.333333 181.333333 0 0 1 0-362.666667z m0 64a117.333333 117.333333 0 1 0 0 234.666667 117.333333 117.333333 0 0 0 0-234.666667z" p-id="2388"></path></svg>