<?xml version="1.0" encoding="utf-8"?>
<svg version="1.1" xmlns:xlink="http://www.w3.org/1999/xlink" width="24px" height="24px" xmlns="http://www.w3.org/2000/svg">
  <g transform="matrix(1 0 0 1 -176 -625 )">
    <path d="M 23.5227272727273 9.20454545454546  C 23.8409090909091 9.52272727272727  24 9.90909090909091  24 10.3636363636364  L 24 13.6363636363636  C 24 14.0909090909091  23.8409090909091 14.4772727272727  23.5227272727273 14.7954545454545  C 23.2045454545455 15.1136363636364  22.8181818181818 15.2727272727273  22.3636363636364 15.2727272727273  L 15.2727272727273 15.2727272727273  L 15.2727272727273 22.3636363636364  C 15.2727272727273 22.8181818181818  15.1136363636364 23.2045454545455  14.7954545454545 23.5227272727273  C 14.4772727272727 23.8409090909091  14.0909090909091 24  13.6363636363636 24  L 10.3636363636364 24  C 9.90909090909091 24  9.52272727272727 23.8409090909091  9.20454545454546 23.5227272727273  C 8.88636363636364 23.2045454545455  8.72727272727273 22.8181818181818  8.72727272727273 22.3636363636364  L 8.72727272727273 15.2727272727273  L 1.63636363636364 15.2727272727273  C 1.18181818181818 15.2727272727273  0.795454545454546 15.1136363636364  0.477272727272727 14.7954545454545  C 0.159090909090909 14.4772727272727  0 14.0909090909091  0 13.6363636363636  L 0 10.3636363636364  C 0 9.90909090909091  0.159090909090909 9.52272727272727  0.477272727272727 9.20454545454546  C 0.795454545454546 8.88636363636364  1.18181818181818 8.72727272727273  1.63636363636364 8.72727272727273  L 8.72727272727273 8.72727272727273  L 8.72727272727273 1.63636363636364  C 8.72727272727273 1.18181818181818  8.88636363636364 0.795454545454544  9.20454545454546 0.477272727272728  C 9.52272727272727 0.159090909090908  9.90909090909091 0  10.3636363636364 0  L 13.6363636363636 0  C 14.0909090909091 0  14.4772727272727 0.159090909090908  14.7954545454545 0.477272727272728  C 15.1136363636364 0.795454545454544  15.2727272727273 1.18181818181818  15.2727272727273 1.63636363636364  L 15.2727272727273 8.72727272727273  L 22.3636363636364 8.72727272727273  C 22.8181818181818 8.72727272727273  23.2045454545455 8.88636363636364  23.5227272727273 9.20454545454546  Z " fill-rule="nonzero" fill="#ffffff" stroke="none" transform="matrix(1 0 0 1 176 625 )" />
  </g>
</svg>