<?xml version="1.0" encoding="utf-8"?>
<svg version="1.1" xmlns:xlink="http://www.w3.org/1999/xlink" width="24px" height="24px" xmlns="http://www.w3.org/2000/svg">
  <g transform="matrix(1 0 0 1 -176 -625 )">
    <path d="M 23.4343434343434 17.9393939393939  C 23.8114478114478 18.3164983164983  24 18.7744107744108  24 19.3131313131313  C 24 19.8518518518519  23.8114478114478 20.3097643097643  23.4343434343434 20.6868686868687  L 20.6868686868687 23.4343434343434  C 20.3097643097643 23.8114478114478  19.8518518518519 24  19.3131313131313 24  C 18.7744107744108 24  18.3164983164983 23.8114478114478  17.9393939393939 23.4343434343434  L 12 17.4949494949495  L 6.06060606060606 23.4343434343434  C 5.68350168350168 23.8114478114478  5.22558922558923 24  4.68686868686869 24  C 4.14814814814815 24  3.69023569023569 23.8114478114478  3.31313131313131 23.4343434343434  L 0.565656565656566 20.6868686868687  C 0.188552188552189 20.3097643097643  0 19.8518518518519  0 19.3131313131313  C 0 18.7744107744108  0.188552188552189 18.3164983164983  0.565656565656566 17.9393939393939  L 6.50505050505051 12  L 0.565656565656566 6.06060606060606  C 0.188552188552189 5.68350168350168  0 5.22558922558923  0 4.68686868686869  C 0 4.14814814814815  0.188552188552189 3.69023569023569  0.565656565656566 3.31313131313131  L 3.31313131313131 0.565656565656566  C 3.69023569023569 0.188552188552188  4.14814814814815 0  4.68686868686869 0  C 5.22558922558923 0  5.68350168350168 0.188552188552188  6.06060606060606 0.565656565656566  L 12 6.50505050505051  L 17.9393939393939 0.565656565656566  C 18.3164983164983 0.188552188552188  18.7744107744108 0  19.3131313131313 0  C 19.8518518518519 0  20.3097643097643 0.188552188552188  20.6868686868687 0.565656565656566  L 23.4343434343434 3.31313131313131  C 23.8114478114478 3.69023569023569  24 4.14814814814815  24 4.68686868686869  C 24 5.22558922558923  23.8114478114478 5.68350168350168  23.4343434343434 6.06060606060606  L 17.4949494949495 12  L 23.4343434343434 17.9393939393939  Z " fill-rule="nonzero" fill="#333333" stroke="none" transform="matrix(1 0 0 1 176 625 )" />
  </g>
</svg>