<?xml version="1.0" encoding="utf-8"?>
<svg version="1.1" xmlns:xlink="http://www.w3.org/1999/xlink" width="28px" height="29px" xmlns="http://www.w3.org/2000/svg">
  <g transform="matrix(1 0 0 1 -231 -614 )">
    <path d="M 0 20.5848214285714  C 0 17.617931547619  1.33940774487472 15.1041666666667  4.01822323462415 13.0435267857143  C 3.9331814730448 12.8385416666667  3.89066059225513 12.5580357142857  3.89066059225513 12.2020089285714  C 3.89066059225513 11.9862351190476  3.94912680334093 11.7219122023809  4.06605922551253 11.4090401785714  C 4.18299164768413 11.0961681547619  4.31055429005315 10.8534226190476  4.44874715261959 10.6808035714286  C 4.43811693242217 10.4434523809524  4.47798025816249 10.1575520833333  4.56833712984055 9.82310267857143  C 4.6586940015186 9.48865327380952  4.77828397873956 9.25669642857143  4.92710706150342 9.12723214285714  C 4.92710706150342 7.62760416666666  5.41875474563402 6.07133556547619  6.40205011389522 4.45842633928571  C 7.38534548215642 2.84551711309524  8.54138192862566 1.71540178571429  9.87015945330296 1.06808035714286  C 11.3477600607441 0.356026785714285  13.0698557327259 0  15.0364464692483 0  C 16.4502657555049 0  17.8640850417616 0.296688988095241  19.2779043280182 0.890066964285715  C 19.7987851176917 1.11662946428571  20.2771450265756 1.37555803571429  20.7129840546697 1.66685267857143  C 21.1488230827639 1.95814732142857  21.5261958997722 2.2602306547619  21.8451025056948 2.57310267857143  C 22.1640091116173 2.88597470238095  22.4563401670463 3.25279017857143  22.7220956719818 3.67354910714286  C 22.9878511769172 4.09430803571429  23.211085801063 4.49348958333333  23.3917995444191 4.87109375  C 23.5725132877752 5.24869791666666  23.7452543659833 5.70452008928571  23.9100227790433 6.23856026785714  C 24.0747911921033 6.77260044642857  24.2103264996204 7.25539434523809  24.3166287015945 7.68694196428571  C 24.4229309035687 8.11848958333333  24.5398633257403 8.64713541666666  24.6674259681093 9.27287946428572  L 24.6833712984055 9.35379464285714  C 25.2680334092635 10.2492559523809  25.5603644646925 11.0584077380952  25.5603644646925 11.78125  C 25.5603644646925 11.9322916666667  25.5125284738041 12.1480654761905  25.4168564920273 12.4285714285714  C 25.3211845102506 12.7090773809524  25.2733485193622 12.9140625  25.2733485193622 13.0435267857143  C 25.2733485193622 13.0543154761905  25.2813211845103 13.0731956845238  25.2972665148064 13.1001674107143  C 25.3132118451025 13.1271391369048  25.331814730448 13.1541108630952  25.3530751708428 13.1810825892857  C 25.3743356112377 13.2080543154762  25.3849658314351 13.2269345238095  25.3849658314351 13.2377232142857  C 26.2034927866363 14.4676339285714  26.8439635535308 15.6247209821429  27.3063781321185 16.708984375  C 27.7687927107062 17.7932477678571  28 18.91796875  28 20.0831473214286  C 28 20.5470610119048  27.8963553530752 21.0864955357143  27.6890660592255 21.7014508928571  C 27.4817767653759 22.31640625  27.1867881548975 22.6238839285714  26.8041002277904 22.6238839285714  C 26.7084282460137 22.6238839285714  26.6047835990888 22.5834263392857  26.4931662870159 22.5025111607143  C 26.3815489749431 22.4215959821429  26.2805618830676 22.3271949404762  26.1902050113895 22.2193080357143  C 26.0998481397115 22.1114211309524  25.998861047836 21.9711681547619  25.8872437357631 21.7985491071429  C 25.7756264236902 21.6259300595238  25.6905846621109 21.4829799107143  25.6321184510251 21.3696986607143  C 25.5736522399393 21.2564174107143  25.5018982536067 21.1161644345238  25.4168564920273 20.9489397321429  C 25.331814730448 20.7817150297619  25.2839787395596 20.6873139880952  25.2733485193622 20.6657366071429  C 25.2627182991648 20.6549479166667  25.2467729688686 20.6495535714286  25.2255125284738 20.6495535714286  L 25.1457858769932 20.7142857142857  C 24.5186028853455 22.375744047619  23.8170083523159 23.5786830357143  23.0410022779043 24.3231026785714  C 23.2536066818527 24.5388764880952  23.5804859529233 24.7465587797619  24.0216400911162 24.9461495535714  C 24.462794229309 25.145740327381  24.82953682612 25.3696056547619  25.121867881549 25.6177455357143  C 25.414198936978 25.8658854166667  25.6028853454822 26.2165178571429  25.6879271070615 26.6696428571429  C 25.6666666666667 26.7127976190476  25.6454062262718 26.7991071428571  25.624145785877 26.9285714285714  C 25.6028853454822 27.0580357142857  25.5656795747912 27.1551339285714  25.5125284738041 27.2198660714286  C 24.8321943811693 28.2663690476191  23.2270311313592 28.7896205357143  20.6970387243736 28.7896205357143  C 20.1336370539104 28.7896205357143  19.546317388003 28.7410714285714  18.9350797266515 28.6439732142857  C 18.3238420652999 28.546875  17.8029612756264 28.4389880952381  17.372437357631 28.3203125  C 16.9419134396355 28.2016369047619  16.3864844343204 28.0398065476191  15.7061503416856 27.8348214285714  C 15.5466970387244 27.7808779761905  15.4244495064541 27.7431175595238  15.3394077448747 27.7215401785714  C 15.1905846621109 27.6783854166667  14.9460895975702 27.6541108630952  14.6059225512528 27.6487165178571  C 14.2657555049355 27.6433221726191  14.0531511009871 27.6352306547619  13.9681093394077 27.6244419642857  C 13.5322703113136 28.1099330357143  12.8545937737282 28.4605654761905  11.9350797266515 28.6763392857143  C 11.0155656795748 28.8921130952381  10.1199696279423 29  9.24829157175399 29  C 8.87623386484434 29  8.50949126803341 28.9919084821429  8.14806378132118 28.9757254464286  C 7.78663629460896 28.9595424107143  7.29233105542901 28.9109933035714  6.66514806378132 28.830078125  C 6.03796507213364 28.7491629464286  5.50113895216401 28.6385788690476  5.05466970387244 28.4983258928571  C 4.60820045558087 28.3580729166667  4.21222475322703 28.1422991071429  3.86674259681093 27.8510044642857  C 3.52126044039484 27.5597098214286  3.34851936218679 27.2144717261905  3.34851936218679 26.8152901785714  C 3.34851936218679 26.3837425595238  3.40167046317388 26.0627790178571  3.50797266514806 25.8523995535714  C 3.61427486712225 25.6420200892857  3.83219438116932 25.3803943452381  4.16173120728929 25.0675223214286  C 4.2786636294609 25.0459449404762  4.49392558845862 24.975818452381  4.80751708428246 24.8571428571429  C 5.1211085801063 24.7384672619048  5.38420652999241 24.6737351190476  5.59681093394077 24.6629464285714  C 5.63933181473045 24.6629464285714  5.71374335611238 24.6521577380952  5.82004555808656 24.6305803571429  C 5.8413059984814 24.6090029761905  5.85193621867882 24.5874255952381  5.85193621867882 24.5658482142857  L 5.82004555808656 24.5172991071429  C 5.30979498861048 24.3986235119048  4.73576309794989 23.8295200892857  4.09794988610478 22.8099888392857  C 3.46013667425968 21.7904575892857  3.07213363705391 20.9462425595238  2.93394077448747 20.27734375  L 2.85421412300683 20.2287946428571  C 2.81169324221716 20.2287946428571  2.74791192103265 20.336681547619  2.6628701594533 20.5524553571429  C 2.47152619589977 20.9947916666667  2.18185269552012 21.3966703869048  1.79384965831435 21.7580915178571  C 1.40584662110858 22.1195126488095  0.993925588458618 22.3218005952381  0.558086560364465 22.3649553571429  L 0.542141230068337 22.3649553571429  C 0.499620349278664 22.3649553571429  0.467729688686408 22.3406808035714  0.446469248291572 22.2921316964286  C 0.425208807896735 22.2435825892857  0.398633257403189 22.2139136904762  0.366742596810934 22.203125  C 0.122247532270311 21.6205357142857  0 21.0811011904762  0 20.5848214285714  Z " fill-rule="nonzero" fill="#02a7f0" stroke="none" transform="matrix(1 0 0 1 231 614 )" />
  </g>
</svg>