<?xml version="1.0" encoding="utf-8"?>
<svg version="1.1" xmlns:xlink="http://www.w3.org/1999/xlink" width="5px" height="8px" xmlns="http://www.w3.org/2000/svg">
  <g transform="matrix(1 0 0 1 -87 -171 )">
    <path d="M 4.91408934707904 3.81563126252505  C 4.97136311569301 3.8690714762859  5 3.93052772211089  5 4  C 5 4.06947227788911  4.97136311569301 4.13092852371409  4.91408934707904 4.18436873747495  L 0.910652920962199 7.91983967935872  C 0.853379152348225 7.97327989311957  0.787514318442153 8  0.713058419243986 8  C 0.638602520045819 8  0.572737686139748 7.97327989311957  0.515463917525773 7.91983967935872  L 0.0859106529209622 7.51903807615231  C 0.0286368843069874 7.46559786239145  0 7.40414161656647  0 7.33466933867735  C 0 7.26519706078824  0.0286368843069874 7.20374081496326  0.0859106529209622 7.1503006012024  L 3.46219931271478 4  L 0.0859106529209622 0.849699398797595  C 0.0286368843069874 0.79625918503674  0 0.734802939211757  0 0.665330661322646  C 0 0.595858383433533  0.0286368843069874 0.534402137608549  0.0859106529209622 0.480961923847695  L 0.515463917525773 0.0801603206412826  C 0.572737686139748 0.0267201068804273  0.638602520045819 0  0.713058419243986 0  C 0.787514318442153 0  0.853379152348225 0.0267201068804273  0.910652920962199 0.0801603206412826  L 4.91408934707904 3.81563126252505  Z " fill-rule="nonzero" fill="#000000" stroke="none" transform="matrix(1 0 0 1 87 171 )" />
  </g>
</svg>