<?xml version="1.0" encoding="utf-8"?>
<svg version="1.1" xmlns:xlink="http://www.w3.org/1999/xlink" width="30px" height="25px" xmlns="http://www.w3.org/2000/svg">
  <g transform="matrix(1 0 0 1 -113 -617 )">
    <path d="M 8.1298828125 6.96193045563549  C 8.3740234375 6.71712629896083  8.49609375 6.38988808952838  8.49609375 5.98021582733813  C 8.49609375 5.57054356514788  8.3740234375 5.24080735411671  8.1298828125 4.9910071942446  C 7.8857421875 4.7412070343725  7.5634765625 4.61630695443645  7.1630859375 4.61630695443645  C 6.7431640625 4.61630695443645  6.3720703125 4.74370503597122  6.0498046875 4.99850119904077  C 5.7275390625 5.25329736211031  5.56640625 5.58053557154276  5.56640625 5.98021582733813  C 5.56640625 6.36990407673861  5.7275390625 6.69214628297362  6.0498046875 6.94694244604317  C 6.3720703125 7.20173860911271  6.7431640625 7.32913669064748  7.1630859375 7.32913669064748  C 7.5634765625 7.32913669064748  7.8857421875 7.20673461231015  8.1298828125 6.96193045563549  Z M 19.00634765625 14.3435251798561  C 19.25537109375 14.1237010391687  19.3798828125 13.8689048760991  19.3798828125 13.5791366906475  C 19.3798828125 13.2993605115907  19.25537109375 13.0495603517186  19.00634765625 12.8297362110312  C 18.75732421875 12.6099120703437  18.4375 12.5  18.046875 12.5  C 17.783203125 12.5  17.54150390625 12.6124100719424  17.32177734375 12.8372302158273  C 17.10205078125 13.0620503597122  16.9921875 13.3093525179856  16.9921875 13.5791366906475  C 16.9921875 13.8589128697042  17.10205078125 14.1112110311751  17.32177734375 14.33603117506  C 17.54150390625 14.5608513189448  17.783203125 14.6732613908873  18.046875 14.6732613908873  C 18.4375 14.6732613908873  18.75732421875 14.5633493205436  19.00634765625 14.3435251798561  Z M 15.56396484375 6.96193045563549  C 15.80322265625 6.71712629896083  15.9228515625 6.38988808952838  15.9228515625 5.98021582733813  C 15.9228515625 5.57054356514788  15.80322265625 5.24080735411671  15.56396484375 4.9910071942446  C 15.32470703125 4.7412070343725  15.0048828125 4.61630695443645  14.6044921875 4.61630695443645  C 14.1845703125 4.61630695443645  13.8134765625 4.74370503597122  13.4912109375 4.99850119904077  C 13.1689453125 5.25329736211031  13.0078125 5.58053557154276  13.0078125 5.98021582733813  C 13.0078125 6.36990407673861  13.1689453125 6.69214628297362  13.4912109375 6.94694244604317  C 13.8134765625 7.20173860911271  14.1845703125 7.32913669064748  14.6044921875 7.32913669064748  C 15.0048828125 7.32913669064748  15.32470703125 7.20673461231015  15.56396484375 6.96193045563549  Z M 24.84375 14.3435251798561  C 25.09765625 14.1237010391687  25.224609375 13.8689048760991  25.224609375 13.5791366906475  C 25.224609375 13.2993605115907  25.09765625 13.0495603517186  24.84375 12.8297362110312  C 24.58984375 12.6099120703437  24.2724609375 12.5  23.8916015625 12.5  C 23.6279296875 12.5  23.38623046875 12.6124100719424  23.16650390625 12.8372302158273  C 22.94677734375 13.0620503597122  22.8369140625 13.3093525179856  22.8369140625 13.5791366906475  C 22.8369140625 13.8589128697042  22.94677734375 14.1112110311751  23.16650390625 14.33603117506  C 23.38623046875 14.5608513189448  23.6279296875 14.6732613908873  23.8916015625 14.6732613908873  C 24.2724609375 14.6732613908873  24.58984375 14.5633493205436  24.84375 14.3435251798561  Z M 19.32861328125 3.72452038369304  C 20.35888671875 4.88858912869704  21.025390625 6.1900479616307  21.328125 7.628896882494  C 21.025390625 7.58892885691447  20.68359375 7.5689448441247  20.302734375 7.5689448441247  C 18.65234375 7.5689448441247  17.1337890625 7.95363709032774  15.7470703125 8.72302158273381  C 14.3603515625 9.49240607513989  13.26904296875 10.5340727418066  12.47314453125 11.8480215827338  C 11.67724609375 13.1619704236611  11.279296875 14.5983213429257  11.279296875 16.1570743405276  C 11.279296875 16.9364508393285  11.3916015625 17.6958433253397  11.6162109375 18.4352517985612  C 11.2744140625 18.4652278177458  10.9423828125 18.4802158273381  10.6201171875 18.4802158273381  C 10.3662109375 18.4802158273381  10.1220703125 18.472721822542  9.8876953125 18.4577338129496  C 9.6533203125 18.4427458033573  9.384765625 18.4102717825739  9.08203125 18.3603117505995  C 8.779296875 18.3103517186251  8.56201171875 18.275379696243  8.43017578125 18.2553956834532  C 8.29833984375 18.2354116706635  8.0322265625 18.1829536370903  7.6318359375 18.0980215827338  C 7.2314453125 18.0130895283773  6.9873046875 17.9606314948042  6.8994140625 17.9406474820144  L 3.193359375 19.8441247002398  L 4.248046875 16.5767386091127  C 1.416015625 14.5483613109512  0 12.1003197442046  0 9.2326139088729  C 0 7.54396482813749  0.47607421875 5.99020783373301  1.42822265625 4.57134292565947  C 2.38037109375 3.15247801758593  3.66943359375 2.03587130295763  5.29541015625 1.22152278177458  C 6.92138671875 0.407174260591525  8.6962890625 0  10.6201171875 0  C 12.3388671875 0  13.96240234375 0.329736211031176  15.49072265625 0.989208633093525  C 17.01904296875 1.64868105515588  18.29833984375 2.56045163868905  19.32861328125 3.72452038369304  Z M 28.74755859375 12.087829736211  C 29.58251953125 13.3018585131894  30 14.6183053557154  30 16.037170263789  C 30 17.2062350119904  29.66552734375 18.3228417266187  28.99658203125 19.3869904076739  C 28.32763671875 20.451139088729  27.421875 21.4178657074341  26.279296875 22.287170263789  L 27.0849609375 25  L 24.169921875 23.3663069544365  C 22.705078125 23.7360111910472  21.640625 23.9208633093525  20.9765625 23.9208633093525  C 19.326171875 23.9208633093525  17.8076171875 23.5686450839329  16.4208984375 22.8642086330935  C 15.0341796875 22.1597721822542  13.94287109375 21.203037569944  13.14697265625 19.9940047961631  C 12.35107421875 18.7849720223821  11.953125 17.4660271782574  11.953125 16.037170263789  C 11.953125 14.6083133493205  12.35107421875 13.2893685051958  13.14697265625 12.0803357314149  C 13.94287109375 10.8713029576339  15.0341796875 9.91456834532374  16.4208984375 9.21013189448441  C 17.8076171875 8.50569544364508  19.326171875 8.15347721822542  20.9765625 8.15347721822542  C 22.548828125 8.15347721822542  24.0283203125 8.50569544364508  25.4150390625 9.21013189448441  C 26.8017578125 9.91456834532374  27.91259765625 10.8738009592326  28.74755859375 12.087829736211  Z " fill-rule="nonzero" fill="#70b603" stroke="none" transform="matrix(1 0 0 1 113 617 )" />
  </g>
</svg>