<svg t="1620352637768" class="icon" viewBox="0 0 1024 1024" version="1.1" xmlns="http://www.w3.org/2000/svg" p-id="23280" width="200" height="200"><path d="M512 64C264.6 64 64 264.6 64 512s200.6 448 448 448 448-200.6 448-448S759.4 64 512 64z m234.7 597.3c0 23.6-19.1 42.7-42.7 42.7H320c-23.6 0-42.7-19.1-42.7-42.7V362.7c0-23.6 19.1-42.7 42.7-42.7h384c23.6 0 42.7 19.1 42.7 42.7v298.6z m-64-298.6H341.3c-11.8 0-21.3 9.6-21.3 21.3v256c0 11.8 9.5 21.3 21.3 21.3h341.3c11.8 0 21.3-9.6 21.3-21.3V384c0.1-11.8-9.4-21.3-21.2-21.3z m-40.6 93.1l-110.8 64c-6.2 3.6-11.6 6.2-19.2 6.2-8.8 0-13.1-2.6-19.2-6.2l-110.9-64c-10.2-5.9-13.7-18.9-7.8-29.1 5.9-10.2 18.9-13.7 29.1-7.8L512 481.6l108.8-62.8c10.2-5.9 23.2-2.4 29.1 7.8 5.9 10.3 2.4 23.3-7.8 29.2zM512 481.6l-2.1 1.2" fill="#2c2c2c" p-id="23281"></path></svg>