<svg t="1620568696464" class="icon" viewBox="0 0 1024 1024" version="1.1" xmlns="http://www.w3.org/2000/svg" p-id="4128" width="200" height="200"><path d="M512 83.591837c207.725714 0 376.163265 167.977796 376.163265 375.243755 0 182.585469-112.43102 343.604245-331.483428 482.178612a83.654531 83.654531 0 0 1-89.526857-0.10449l-10.156409-6.478367C244.756898 797.340735 135.836735 638.495347 135.836735 458.814694 135.836735 251.569633 304.274286 83.591837 512 83.591837z m0 83.591836c-161.603918 0-292.571429 130.612245-292.571429 291.651919 0 147.539592 92.431673 282.373224 282.749388 405.253224l9.822041 6.269388 9.759347-6.227592C712.139755 741.187918 804.571429 606.354286 804.571429 458.835592 804.571429 297.77502 673.603918 167.183673 512 167.183673z m0 125.387756a167.183673 167.183673 0 1 1 0 334.367347 167.183673 167.183673 0 0 1 0-334.367347z m0 83.591836a83.591837 83.591837 0 1 0 0 167.183674 83.591837 83.591837 0 0 0 0-167.183674z" fill="#2c2c2c" p-id="4129"></path></svg>