<svg t="1621998311345" class="icon" viewBox="0 0 1024 1024" version="1.1" xmlns="http://www.w3.org/2000/svg" p-id="3296" width="200" height="200"><path d="M663.04 931.84H130.23232A48.3328 48.3328 0 0 1 81.92 883.59424V140.41088A48.3328 48.3328 0 0 1 130.23232 92.16h746.39872a48.3328 48.3328 0 0 1 48.31232 48.25088v378.4192a34.4576 34.4576 0 0 1-68.9152 0V160.98304H150.83008v702.03392H663.04a34.41152 34.41152 0 1 1 0 68.82304zM686.08 372.05504H245.01248a34.41152 34.41152 0 1 1 0-68.82816h441.03168a34.41152 34.41152 0 1 1 0 68.82816z m-256.15872 145.68448H245.01248a34.41152 34.41152 0 1 1 0-68.82816h184.9088a34.41152 34.41152 0 1 1 0 68.82816z m477.696 402.54464a34.3552 34.3552 0 0 1-24.36608-10.08128l-130.74944-130.59584a34.432 34.432 0 1 1 48.72192-48.64l130.75456 130.59584a34.41152 34.41152 0 0 1-24.35584 58.72128zM377.09312 663.41888h-132.096a34.41664 34.41664 0 1 1 0-68.82816h132.096a34.41664 34.41664 0 1 1 0 68.82816z" fill="#4A4A4A" p-id="3297"></path><path d="M664.80128 833.536a189.2608 189.2608 0 1 1 189.40928-189.25568 189.55264 189.55264 0 0 1-189.40928 189.25568z m0-309.69344a120.43776 120.43776 0 1 0 120.53504 120.43776 120.6272 120.6272 0 0 0-120.53504-120.4224z" fill="#FF7214" p-id="3298"></path></svg>