<svg t="1621147234849" class="icon" viewBox="0 0 1024 1024" version="1.1" xmlns="http://www.w3.org/2000/svg" p-id="4849" width="200" height="200"><path d="M512 936c234.169 0 424-189.831 424-424S746.169 88 512 88 88 277.831 88 512s189.831 424 424 424z m0 88C229.23 1024 0 794.77 0 512S229.23 0 512 0s512 229.23 512 512-229.23 512-512 512z" p-id="4850" fill="#ffffff"></path><path d="M556 256c0-24.3-19.7-44-44-44s-44 19.7-44 44v339.492c0 24.301 19.7 44 44 44s44-19.699 44-44V256z m-44 428c-35.346 0-64 28.654-64 64 0 35.346 28.654 64 64 64 35.346 0 64-28.654 64-64 0-35.346-28.654-64-64-64z" p-id="4851" fill="#ffffff"></path></svg>