<?xml version="1.0" encoding="utf-8"?>
<svg version="1.1" xmlns:xlink="http://www.w3.org/1999/xlink" width="25px" height="21px" xmlns="http://www.w3.org/2000/svg">
  <g>
    <path d="M 8.40541294642857 10.193023255814  C 8.75418526785714 9.84418604651163  8.92857142857143 9.42325581395349  8.92857142857143 8.93023255813953  C 8.92857142857143 8.43720930232558  8.75418526785714 8.01627906976744  8.40541294642857 7.66744186046512  C 8.056640625 7.31860465116279  7.63578869047619 7.14418604651163  7.14285714285714 7.14418604651163  C 6.6499255952381 7.14418604651163  6.22907366071429 7.31860465116279  5.88030133928571 7.66744186046512  C 5.53152901785714 8.01627906976744  5.35714285714286 8.43720930232558  5.35714285714286 8.93023255813953  C 5.35714285714286 9.42325581395349  5.53152901785714 9.84418604651163  5.88030133928571 10.193023255814  C 6.22907366071429 10.5418604651163  6.6499255952381 10.7162790697674  7.14285714285714 10.7162790697674  C 7.63578869047619 10.7162790697674  8.056640625 10.5418604651163  8.40541294642857 10.193023255814  Z M 13.7625558035714 10.193023255814  C 14.111328125 9.84418604651163  14.2857142857143 9.42325581395349  14.2857142857143 8.93023255813953  C 14.2857142857143 8.43720930232558  14.111328125 8.01627906976744  13.7625558035714 7.66744186046512  C 13.4137834821429 7.31860465116279  12.992931547619 7.14418604651163  12.5 7.14418604651163  C 12.007068452381 7.14418604651163  11.5862165178571 7.31860465116279  11.2374441964286 7.66744186046512  C 10.888671875 8.01627906976744  10.7142857142857 8.43720930232558  10.7142857142857 8.93023255813953  C 10.7142857142857 9.42325581395349  10.888671875 9.84418604651163  11.2374441964286 10.193023255814  C 11.5862165178571 10.5418604651163  12.007068452381 10.7162790697674  12.5 10.7162790697674  C 12.992931547619 10.7162790697674  13.4137834821429 10.5418604651163  13.7625558035714 10.193023255814  Z M 19.1196986607143 10.193023255814  C 19.4684709821429 9.84418604651163  19.6428571428571 9.42325581395349  19.6428571428571 8.93023255813953  C 19.6428571428571 8.43720930232558  19.4684709821429 8.01627906976744  19.1196986607143 7.66744186046512  C 18.7709263392857 7.31860465116279  18.3500744047619 7.14418604651163  17.8571428571429 7.14418604651163  C 17.3642113095238 7.14418604651163  16.943359375 7.31860465116279  16.5945870535714 7.66744186046512  C 16.2458147321429 8.01627906976744  16.0714285714286 8.43720930232558  16.0714285714286 8.93023255813953  C 16.0714285714286 9.42325581395349  16.2458147321429 9.84418604651163  16.5945870535714 10.193023255814  C 16.943359375 10.5418604651163  17.3642113095238 10.7162790697674  17.8571428571429 10.7162790697674  C 18.3500744047619 10.7162790697674  18.7709263392857 10.5418604651163  19.1196986607143 10.193023255814  Z M 23.3258928571429 4.44418604651163  C 24.4419642857143 5.81627906976744  25 7.31162790697674  25 8.93023255813953  C 25 10.5488372093023  24.4419642857143 12.0441860465116  23.3258928571429 13.4162790697674  C 22.2098214285714 14.7883720930233  20.6938244047619 15.8720930232558  18.7779017857143 16.6674418604651  C 16.8619791666667 17.4627906976744  14.7693452380952 17.8604651162791  12.5 17.8604651162791  C 11.4769345238095 17.8604651162791  10.4957217261905 17.7767441860465  9.55636160714286 17.6093023255814  C 7.94735863095238 19.2186046511628  5.92447916666667 20.2837209302326  3.48772321428571 20.8046511627907  C 3.00409226190476 20.8976744186047  2.60416666666667 20.9581395348837  2.28794642857143 20.9860465116279  C 2.17633928571429 20.9953488372093  2.07403273809524 20.9674418604651  1.98102678571429 20.9023255813953  C 1.88802083333333 20.8372093023256  1.82756696428571 20.753488372093  1.79966517857143 20.6511627906977  C 1.76246279761905 20.5116279069767  1.85546875 20.3395348837209  2.07868303571429 20.1348837209302  C 2.12518601190476 20.0883720930233  2.23446800595238 19.9883720930233  2.40652901785714 19.8348837209302  C 2.5785900297619 19.6813953488372  2.69717261904762 19.5720930232558  2.76227678571429 19.506976744186  C 2.82738095238095 19.4418604651163  2.93666294642857 19.3232558139535  3.09012276785714 19.1511627906977  C 3.24358258928571 18.9790697674419  3.35518973214286 18.8325581395349  3.42494419642857 18.7116279069767  C 3.49469866071429 18.5906976744186  3.59002976190476 18.4186046511628  3.7109375 18.1953488372093  C 3.83184523809524 17.9720930232558  3.92485119047619 17.7488372093023  3.98995535714286 17.5255813953488  C 4.05505952380952 17.3023255813954  4.12248883928571 17.0348837209302  4.19224330357143 16.7232558139535  C 4.26199776785714 16.4116279069767  4.32012648809524 16.0744186046512  4.36662946428571 15.7116279069767  C 3.00874255952381 14.8744186046512  1.94149925595238 13.8674418604651  1.16489955357143 12.6906976744186  C 0.388299851190476 11.5139534883721  0 10.2604651162791  0 8.93023255813953  C 0 7.31162790697674  0.558035714285714 5.81627906976744  1.67410714285714 4.44418604651163  C 2.79017857142857 3.07209302325581  4.30617559523809 1.98837209302326  6.22209821428571 1.19302325581395  C 8.13802083333333 0.397674418604652  10.2306547619048 0  12.5 0  C 14.7693452380952 0  16.8619791666667 0.397674418604652  18.7779017857143 1.19302325581395  C 20.6938244047619 1.98837209302326  22.2098214285714 3.07209302325581  23.3258928571429 4.44418604651163  Z " fill-rule="nonzero" fill="#7f7f7f" stroke="none" />
  </g>
</svg>