<?xml version="1.0" encoding="utf-8"?>
<svg version="1.1" xmlns:xlink="http://www.w3.org/1999/xlink" width="25px" height="24px" xmlns="http://www.w3.org/2000/svg">
  <g>
    <path d="M 24.1586538461538 8.60491493383743  C 24.7195512820513 8.69565217391304  25 8.92753623188406  25 9.30056710775047  C 25 9.52236925015753  24.8697916666667 9.7643352236925  24.609375 10.0264650283554  L 19.1556490384615 15.3799621928166  L 20.4477163461538 22.9413988657845  C 20.4577323717949 23.0119722747322  20.4627403846154 23.1127914303718  20.4627403846154 23.2438563327032  C 20.4627403846154 23.4555765595463  20.41015625 23.6345305608066  20.3049879807692 23.7807183364839  C 20.1998197115385 23.9269061121613  20.0470753205128 24  19.8467548076923 24  C 19.6564503205128 24  19.4561298076923 23.9395085066163  19.2457932692308 23.8185255198488  L 12.5 20.2495274102079  L 5.75420673076923 23.8185255198488  C 5.53385416666667 23.9395085066163  5.33353365384615 24  5.15324519230769 24  C 4.94290865384615 24  4.78515625 23.9269061121613  4.67998798076923 23.7807183364839  C 4.57481971153846 23.6345305608066  4.52223557692308 23.4555765595463  4.52223557692308 23.2438563327032  C 4.52223557692308 23.1833648393195  4.5322516025641 23.0825456836799  4.55228365384615 22.9413988657845  L 5.84435096153846 15.3799621928166  L 0.375600961538462 10.0264650283554  C 0.125200320512821 9.75425330812854  0 9.51228733459357  0 9.30056710775047  C 0 8.92753623188406  0.280448717948718 8.69565217391304  0.841346153846154 8.60491493383743  L 8.38341346153846 7.50094517958412  L 11.7638221153846 0.620037807183364  C 11.9541266025641 0.20667926906112  12.1995192307692 0  12.5 0  C 12.8004807692308 0  13.0458733974359 0.20667926906112  13.2361778846154 0.620037807183364  L 16.6165865384615 7.50094517958412  L 24.1586538461538 8.60491493383743  Z " fill-rule="nonzero" fill="#ffb803" stroke="none" />
  </g>
</svg>