<?xml version="1.0" encoding="utf-8"?>
<svg version="1.1" xmlns:xlink="http://www.w3.org/1999/xlink" width="25px" height="22px" xmlns="http://www.w3.org/2000/svg">
  <g>
    <path d="M 13.1138392857143 21.7421875  C 12.9464285714286 21.9140625  12.7418154761905 22  12.5 22  C 12.2581845238095 22  12.0535714285714 21.9140625  11.8861607142857 21.7421875  L 3.18080357142857 13.1197916666667  C 3.08779761904762 13.0434027777778  2.95991443452381 12.9192708333333  2.79715401785714 12.7473958333333  C 2.63439360119048 12.5755208333333  2.37630208333333 12.2628038194444  2.02287946428571 11.8092447916667  C 1.6694568452381 11.3556857638889  1.35323660714286 10.8901909722222  1.07421875 10.4127604166667  C 0.795200892857143 9.93532986111111  0.546409970238095 9.35763888888889  0.327845982142857 8.6796875  C 0.109281994047619 8.00173611111111  0 7.34288194444444  0 6.703125  C 0 4.60243055555555  0.590587797619048 2.96006944444444  1.77176339285714 1.77604166666667  C 2.95293898809524 0.592013888888889  4.58519345238095 0  6.66852678571429 0  C 7.24516369047619 0  7.83342633928571 0.102647569444443  8.43331473214286 0.307942708333334  C 9.033203125 0.51323784722222  9.59123883928571 0.790147569444443  10.107421875 1.138671875  C 10.6236049107143 1.48719618055555  11.0677083333333 1.81423611111111  11.4397321428571 2.11979166666667  C 11.811755952381 2.42534722222222  12.1651785714286 2.75  12.5 3.09375  C 12.8348214285714 2.75  13.188244047619 2.42534722222222  13.5602678571429 2.11979166666667  C 13.9322916666667 1.81423611111111  14.3763950892857 1.48719618055555  14.892578125 1.138671875  C 15.4087611607143 0.790147569444443  15.966796875 0.51323784722222  16.5666852678571 0.307942708333334  C 17.1665736607143 0.102647569444443  17.7548363095238 0  18.3314732142857 0  C 20.4148065476191 0  22.0470610119048 0.592013888888889  23.2282366071429 1.77604166666667  C 24.409412202381 2.96006944444444  25 4.60243055555555  25 6.703125  C 25 8.81336805555555  23.9350818452381 10.9618055555556  21.8052455357143 13.1484375  L 13.1138392857143 21.7421875  Z " fill-rule="nonzero" fill="#f71f39" stroke="none" />
  </g>
</svg>