<?xml version="1.0" encoding="utf-8"?>
<svg version="1.1" xmlns:xlink="http://www.w3.org/1999/xlink" width="23px" height="20px" xmlns="http://www.w3.org/2000/svg">
  <g transform="matrix(1 0 0 1 -20 -15 )">
    <path d="M 10.7264573991031 15  L 11.4484304932735 15  L 12.9439461883408 13.3522727272727  L 10.9843049327354 11.1931818181818  L 9.48878923766816 12.8409090909091  L 9.48878923766816 13.6363636363636  L 10.7264573991031 13.6363636363636  L 10.7264573991031 15  Z M 17.1081838565022 5.24147727272727  C 17.2542974588939 5.08049242424242  17.2585949177877 4.92424242424242  17.1210762331839 4.77272727272727  C 16.98355754858 4.62121212121212  16.8417414050822 4.62594696969697  16.6956278026906 4.78693181818182  L 12.1832959641256 9.75852272727273  C 12.0371823617339 9.91950757575758  12.0328849028401 10.0757575757576  12.1704035874439 10.2272727272727  C 12.3079222720478 10.3787878787879  12.4497384155456 10.374053030303  12.5958520179372 10.2130681818182  L 17.1081838565022 5.24147727272727  Z M 17.8946188340807 12.7982954545455  C 18.0665171898356 12.874053030303  18.152466367713 13.0113636363636  18.152466367713 13.2102272727273  L 18.152466367713 15.9090909090909  C 18.152466367713 17.0359848484848  17.7893310911809 17.9995265151515  17.0630605381166 18.7997159090909  C 16.3367899850523 19.5999053030303  15.4622571001495 20  14.4394618834081 20  L 3.71300448430493 20  C 2.69020926756353 20  1.81567638266069 19.5999053030303  1.08940582959641 18.7997159090909  C 0.363135276532137 17.9995265151515  0 17.0359848484848  0 15.9090909090909  L 0 4.09090909090909  C 0 2.96401515151515  0.363135276532137 2.00047348484848  1.08940582959641 1.20028409090909  C 1.81567638266069 0.400094696969695  2.69020926756353 0  3.71300448430493 0  L 14.4394618834081 0  C 14.9809417040359 0  15.4837443946188 0.118371212121211  15.947869955157 0.355113636363635  C 16.0767937219731 0.421401515151514  16.1541479820628 0.53030303030303  16.179932735426 0.681818181818181  C 16.2057174887892 0.84280303030303  16.1670403587444 0.980113636363635  16.0639013452915 1.09375  L 15.4321748878924 1.78977272727273  C 15.311846038864 1.92234848484848  15.1743273542601 1.96022727272727  15.0196188340807 1.90340909090909  C 14.8219357249626 1.84659090909091  14.6285500747384 1.81818181818182  14.4394618834081 2  L 3.71300448430493 2  C 3.1457399103139 1.81818181818182  2.66012705530643 2.0407196969697  2.25616591928251 2.48579545454545  C 1.8522047832586 2.93087121212121  1.65022421524664 3.46590909090909  2 4.09090909090909  L 2 15.9090909090909  C 1.65022421524664 16.5340909090909  1.8522047832586 17.0691287878788  2.25616591928251 17.5142045454545  C 2.66012705530643 17.9592803030303  3.1457399103139 18.1818181818182  3.71300448430493 18  L 14.4394618834081 18  C 15.0067264573991 18.1818181818182  15.4923393124066 17.9592803030303  15.8963004484305 17.5142045454545  C 16.3002615844544 17.0691287878788  16.5022421524664 16.5340909090909  16.5022421524664 15.9090909090909  L 16.5022421524664 14.1193181818182  C 16.5022421524664 13.9962121212121  16.5409192825112 13.8920454545455  16.6182735426009 13.8068181818182  L 17.4433856502242 12.8977272727273  C 17.5723094170404 12.7556818181818  17.7227204783259 12.7225378787879  17.8946188340807 12.7982954545455  Z M 8.25112107623318 12.2727272727273  L 16.914798206278 2.72727272727273  L 20.627802690583 6.81818181818182  L 11.9641255605381 16.3636363636364  L 8.25112107623318 16.3636363636364  L 8.25112107623318 12.2727272727273  Z M 23 3.63636363636364  C 23 4.01515151515151  22.8796711509716 4.33712121212121  22.6390134529148 4.60227272727273  L 21.4529147982063 5.90909090909091  L 17.7399103139013 1.81818181818182  L 18.9260089686099 0.511363636363635  C 19.1666666666667 0.246212121212119  19.4588938714499 0.113636363636365  19.8026905829596 0.113636363636365  C 20.1464872944694 0.113636363636365  20.4387144992526 0.246212121212119  20.6793721973094 0.511363636363635  L 22.6390134529148 2.67045454545455  C 22.8796711509716 2.93560606060606  23 3.25757575757576  23 3.63636363636364  Z " fill-rule="nonzero" fill="#fc2b1c" stroke="none" transform="matrix(1 0 0 1 20 15 )" />
  </g>
</svg>