<?xml version="1.0" encoding="utf-8"?>
<svg version="1.1" xmlns:xlink="http://www.w3.org/1999/xlink" width="25px" height="24px" xmlns="http://www.w3.org/2000/svg">
  <g>
    <path d="M 8.40541294642857 8.5859375  C 8.75418526785714 8.9765625  8.92857142857143 9.44791666666667  8.92857142857143 10  C 8.92857142857143 10.5520833333333  8.75418526785714 11.0234375  8.40541294642857 11.4140625  C 8.056640625 11.8046875  7.63578869047619 12  7.14285714285714 12  C 6.6499255952381 12  6.22907366071429 11.8046875  5.88030133928571 11.4140625  C 5.53152901785714 11.0234375  5.35714285714286 10.5520833333333  5.35714285714286 10  C 5.35714285714286 9.44791666666667  5.53152901785714 8.9765625  5.88030133928571 8.5859375  C 6.22907366071429 8.1953125  6.6499255952381 8  7.14285714285714 8  C 7.63578869047619 8  8.056640625 8.1953125  8.40541294642857 8.5859375  Z M 13.7625558035714 8.5859375  C 14.111328125 8.9765625  14.2857142857143 9.44791666666667  14.2857142857143 10  C 14.2857142857143 10.5520833333333  14.111328125 11.0234375  13.7625558035714 11.4140625  C 13.4137834821429 11.8046875  12.992931547619 12  12.5 12  C 12.007068452381 12  11.5862165178571 11.8046875  11.2374441964286 11.4140625  C 10.888671875 11.0234375  10.7142857142857 10.5520833333333  10.7142857142857 10  C 10.7142857142857 9.44791666666667  10.888671875 8.9765625  11.2374441964286 8.5859375  C 11.5862165178571 8.1953125  12.007068452381 8  12.5 8  C 12.992931547619 8  13.4137834821429 8.1953125  13.7625558035714 8.5859375  Z M 19.1196986607143 8.5859375  C 19.4684709821429 8.9765625  19.6428571428571 9.44791666666667  19.6428571428571 10  C 19.6428571428571 10.5520833333333  19.4684709821429 11.0234375  19.1196986607143 11.4140625  C 18.7709263392857 11.8046875  18.3500744047619 12  17.8571428571429 12  C 17.3642113095238 12  16.943359375 11.8046875  16.5945870535714 11.4140625  C 16.2458147321429 11.0234375  16.0714285714286 10.5520833333333  16.0714285714286 10  C 16.0714285714286 9.44791666666667  16.2458147321429 8.9765625  16.5945870535714 8.5859375  C 16.943359375 8.1953125  17.3642113095238 8  17.8571428571429 8  C 18.3500744047619 8  18.7709263392857 8.1953125  19.1196986607143 8.5859375  Z M 17.822265625 3.0859375  C 16.1714099702381 2.36197916666667  14.3973214285714 2  12.5 2  C 10.6026785714286 2  8.82859002976191 2.36197916666667  7.177734375 3.0859375  C 5.52687872023809 3.80989583333333  4.21549479166667 4.78645833333333  3.24358258928571 6.015625  C 2.27167038690476 7.24479166666666  1.78571428571429 8.57291666666666  1.78571428571429 10  C 1.78571428571429 11.1666666666667  2.11821056547619 12.2786458333333  2.783203125 13.3359375  C 3.44819568452381 14.3932291666667  4.38523065476191 15.3072916666667  5.59430803571429 16.078125  L 6.80803571428571 16.859375  L 6.43136160714286 18.359375  C 6.20814732142857 19.3072916666667  5.88262648809524 20.203125  5.45479910714286 21.046875  C 6.86848958333333 20.390625  8.14732142857143 19.5  9.29129464285714 18.375  L 9.89118303571429 17.78125  L 10.6863839285714 17.875  C 11.328125 17.9583333333333  11.9326636904762 18  12.5 18  C 14.3973214285714 18  16.1714099702381 17.6380208333333  17.822265625 16.9140625  C 19.4731212797619 16.1901041666667  20.7845052083333 15.2135416666667  21.7564174107143 13.984375  C 22.7283296130952 12.7552083333333  23.2142857142857 11.4270833333333  23.2142857142857 10  C 23.2142857142857 8.57291666666666  22.7283296130952 7.24479166666666  21.7564174107143 6.015625  C 20.7845052083333 4.78645833333333  19.4731212797619 3.80989583333333  17.822265625 3.0859375  Z M 24.0094866071429 6.1171875  C 24.6698288690476 7.3515625  25 8.64583333333333  25 10  C 25 11.8125  24.4419642857143 13.4869791666667  23.3258928571429 15.0234375  C 22.2098214285714 16.5598958333333  20.6938244047619 17.7734375  18.7779017857143 18.6640625  C 16.8619791666667 19.5546875  14.7693452380952 20  12.5 20  C 11.8489583333333 20  11.1746651785714 19.9583333333333  10.4771205357143 19.875  C 8.63560267857143 21.6979166666667  6.49646577380952 22.9583333333333  4.05970982142857 23.65625  C 3.60398065476191 23.8020833333333  3.07384672619048 23.9166666666667  2.46930803571429 24  L 2.39955357142857 24  C 2.26004464285714 24  2.13448660714286 23.9453125  2.02287946428571 23.8359375  C 1.91127232142857 23.7265625  1.83686755952381 23.5833333333333  1.79966517857143 23.40625  L 1.79966517857143 23.390625  C 1.77176339285714 23.3489583333333  1.76943824404762 23.2864583333333  1.79268973214286 23.203125  C 1.8159412202381 23.1197916666667  1.82524181547619 23.0677083333333  1.82059151785714 23.046875  C 1.8159412202381 23.0260416666667  1.83686755952381 22.9765625  1.88337053571429 22.8984375  L 1.96707589285714 22.7578125  C 1.96707589285714 22.7578125  1.99962797619048 22.7135416666667  2.06473214285714 22.625  C 2.12983630952381 22.5364583333333  2.16703869047619 22.4895833333333  2.17633928571429 22.484375  C 2.24144345238095 22.4010416666667  2.38560267857143 22.2213541666667  2.60881696428571 21.9453125  C 2.83203125 21.6692708333333  2.99246651785714 21.4713541666667  3.09012276785714 21.3515625  C 3.18777901785714 21.2317708333333  3.33193824404762 21.0260416666667  3.52260044642857 20.734375  C 3.71326264880952 20.4427083333333  3.86439732142857 20.1770833333333  3.97600446428571 19.9375  C 4.08761160714286 19.6979166666667  4.21316964285714 19.390625  4.35267857142857 19.015625  C 4.4921875 18.640625  4.61309523809524 18.2447916666667  4.71540178571429 17.828125  C 3.25520833333333 16.9010416666667  2.10425967261905 15.7552083333333  1.26255580357143 14.390625  C 0.420851934523809 13.0260416666667  0 11.5625  0 10  C 0 8.64583333333333  0.330171130952381 7.3515625  0.990513392857143 6.1171875  C 1.6508556547619 4.8828125  2.5390625 3.81770833333333  3.65513392857143 2.921875  C 4.77120535714286 2.02604166666666  6.10119047619048 1.31510416666666  7.64508928571429 0.789062499999999  C 9.1889880952381 0.263020833333332  10.8072916666667 0  12.5 0  C 14.1927083333333 0  15.8110119047619 0.263020833333332  17.3549107142857 0.789062499999999  C 18.8988095238095 1.31510416666666  20.2287946428571 2.02604166666666  21.3448660714286 2.921875  C 22.4609375 3.81770833333333  23.3491443452381 4.8828125  24.0094866071429 6.1171875  Z " fill-rule="nonzero" fill="#000000" stroke="none" />
  </g>
</svg>