<?xml version="1.0" encoding="utf-8"?>
<svg version="1.1" xmlns:xlink="http://www.w3.org/1999/xlink" width="25px" height="22px" xmlns="http://www.w3.org/2000/svg">
  <g>
    <path d="M 20.5915178571429 11.8020833333333  C 22.3400297619048 10.0069444444444  23.2142857142857 8.30729166666667  23.2142857142857 6.703125  C 23.2142857142857 5.9296875  23.1143043154762 5.24696180555555  22.9143415178571 4.65494791666667  C 22.7143787202381 4.06293402777778  22.4586123511905 3.59266493055555  22.1470424107143 3.244140625  C 21.8354724702381 2.89561631944444  21.4564732142857 2.61154513888889  21.0100446428571 2.39192708333333  C 20.5636160714286 2.17230902777778  20.1264880952381 2.02430555555555  19.6986607142857 1.94791666666667  C 19.2708333333333 1.87152777777777  18.8151041666667 1.83333333333333  18.3314732142857 1.83333333333333  C 17.8478422619048 1.83333333333333  17.3270089285714 1.955078125  16.7689732142857 2.19856770833333  C 16.2109375 2.44205729166667  15.6970796130952 2.74761284722222  15.2273995535714 3.115234375  C 14.7577194940476 3.48285590277778  14.35546875 3.82660590277778  14.0206473214286 4.146484375  C 13.6858258928571 4.46636284722222  13.4068080357143 4.75998263888889  13.18359375 5.02734375  C 13.0161830357143 5.23741319444444  12.788318452381 5.34244791666667  12.5 5.34244791666667  C 12.211681547619 5.34244791666667  11.9838169642857 5.23741319444444  11.81640625 5.02734375  C 11.5931919642857 4.75998263888889  11.3141741071429 4.46636284722222  10.9793526785714 4.146484375  C 10.64453125 3.82660590277778  10.2422805059524 3.48285590277778  9.77260044642857 3.115234375  C 9.30292038690476 2.74761284722222  8.7890625 2.44205729166667  8.23102678571429 2.19856770833333  C 7.67299107142857 1.955078125  7.15215773809524 1.83333333333333  6.66852678571429 1.83333333333333  C 6.18489583333333 1.83333333333333  5.72916666666667 1.87152777777777  5.30133928571429 1.94791666666667  C 4.87351190476191 2.02430555555555  4.43638392857143 2.17230902777778  3.98995535714286 2.39192708333333  C 3.54352678571429 2.61154513888889  3.1645275297619 2.89561631944444  2.85295758928571 3.244140625  C 2.54138764880952 3.59266493055555  2.2856212797619 4.06293402777778  2.08565848214286 4.65494791666667  C 1.88569568452381 5.24696180555555  1.78571428571429 5.9296875  1.78571428571429 6.703125  C 1.78571428571429 8.30729166666667  2.65531994047619 10.0021701388889  4.39453125 11.7877604166667  L 12.5 19.80859375  L 20.5915178571429 11.8020833333333  Z M 23.2282366071429 1.77604166666667  C 24.409412202381 2.96006944444444  25 4.60243055555555  25 6.703125  C 25 8.81336805555555  23.9350818452381 10.9618055555556  21.8052455357143 13.1484375  L 13.1138392857143 21.7421875  C 12.9464285714286 21.9140625  12.7418154761905 22  12.5 22  C 12.2581845238095 22  12.0535714285714 21.9140625  11.8861607142857 21.7421875  L 3.18080357142857 13.1197916666667  C 3.08779761904762 13.0434027777778  2.95991443452381 12.9192708333333  2.79715401785714 12.7473958333333  C 2.63439360119048 12.5755208333333  2.37630208333333 12.2628038194444  2.02287946428571 11.8092447916667  C 1.6694568452381 11.3556857638889  1.35323660714286 10.8901909722222  1.07421875 10.4127604166667  C 0.795200892857143 9.93532986111111  0.546409970238095 9.35763888888889  0.327845982142857 8.6796875  C 0.109281994047619 8.00173611111111  0 7.34288194444444  0 6.703125  C 0 4.60243055555555  0.590587797619048 2.96006944444444  1.77176339285714 1.77604166666667  C 2.95293898809524 0.592013888888889  4.58519345238095 0  6.66852678571429 0  C 7.24516369047619 0  7.83342633928571 0.102647569444443  8.43331473214286 0.307942708333334  C 9.033203125 0.51323784722222  9.59123883928571 0.790147569444443  10.107421875 1.138671875  C 10.6236049107143 1.48719618055555  11.0677083333333 1.81423611111111  11.4397321428571 2.11979166666667  C 11.811755952381 2.42534722222222  12.1651785714286 2.75  12.5 3.09375  C 12.8348214285714 2.75  13.188244047619 2.42534722222222  13.5602678571429 2.11979166666667  C 13.9322916666667 1.81423611111111  14.3763950892857 1.48719618055555  14.892578125 1.138671875  C 15.4087611607143 0.790147569444443  15.966796875 0.51323784722222  16.5666852678571 0.307942708333334  C 17.1665736607143 0.102647569444443  17.7548363095238 0  18.3314732142857 0  C 20.4148065476191 0  22.0470610119048 0.592013888888889  23.2282366071429 1.77604166666667  Z " fill-rule="nonzero" fill="#000000" stroke="none" />
  </g>
</svg>