<?xml version="1.0" encoding="utf-8"?>
<svg version="1.1" xmlns:xlink="http://www.w3.org/1999/xlink" width="80px" height="80px" xmlns="http://www.w3.org/2000/svg">
  <g transform="matrix(1 0 0 1 -147 -940 )">
    <path d="M 19.921875 5.36458333333333  C 26.0503472222222 1.78819444444444  32.7430555555556 0  40 0  C 47.2569444444444 0  53.9496527777778 1.78819444444444  60.078125 5.36458333333333  C 66.2065972222222 8.94097222222221  71.0590277777778 13.7934027777778  74.6354166666667 19.921875  C 78.2118055555555 26.0503472222222  80 32.7430555555555  80 40  C 80 47.2569444444444  78.2118055555555 53.9496527777778  74.6354166666667 60.078125  C 71.0590277777778 66.2065972222222  66.2065972222222 71.0590277777778  60.078125 74.6354166666667  C 53.9496527777778 78.2118055555556  47.2569444444444 80  40 80  C 32.7430555555556 80  26.0503472222222 78.2118055555556  19.921875 74.6354166666667  C 13.7934027777778 71.0590277777778  8.94097222222222 66.2065972222222  5.36458333333333 60.078125  C 1.78819444444444 53.9496527777778  0 47.2569444444444  0 40  C 0 32.7430555555555  1.78819444444444 26.0503472222222  5.36458333333333 19.921875  C 8.94097222222222 13.7934027777778  13.7934027777778 8.94097222222221  19.921875 5.36458333333333  Z M 31.6666666666667 59.53125  L 60 42.8645833333333  C 61.1111111111111 42.2395833333333  61.6666666666667 41.2847222222222  61.6666666666667 40  C 61.6666666666667 38.7152777777778  61.1111111111111 37.7604166666667  60 37.1354166666667  L 31.6666666666667 20.46875  C 30.5902777777778 19.8090277777778  29.4791666666667 19.7916666666667  28.3333333333333 20.4166666666667  C 27.2222222222222 21.0763888888889  26.6666666666667 22.0486111111111  27 23.3333333333333  L 27 56.6666666666667  C 26.6666666666667 57.9513888888889  27.2222222222222 58.9236111111111  28.3333333333333 59.5833333333333  C 28.8888888888889 59.8611111111111  29.4444444444444 60  30 60  C 30.5902777777778 60  31.1458333333333 59.84375  31.6666666666667 59.53125  Z " fill-rule="nonzero" fill="#000000" stroke="none" fill-opacity="0.396078431372549" transform="matrix(1 0 0 1 147 940 )" />
  </g>
</svg>