<?xml version="1.0" standalone="no"?><!DOCTYPE svg PUBLIC "-//W3C//DTD SVG 1.1//EN" "http://www.w3.org/Graphics/SVG/1.1/DTD/svg11.dtd"><svg t="1621089220179" class="icon" viewBox="0 0 1024 1024" version="1.1" xmlns="http://www.w3.org/2000/svg" p-id="4060" xmlns:xlink="http://www.w3.org/1999/xlink" width="200" height="200"><defs><style type="text/css"></style></defs><path d="M622.88 429.99c16.48 15.02 27.84 34.26 33.88 55.08l89.13 89.12c15.31-59.14 4.8-125.26-33.55-176.36-7.39-9.86-15.66-18.9-24.67-26.98h0.15c-18.46-18.18-46.47-18.18-64.93 0-14.92 13.16-17.26 37.07-5.24 53.39a36.26 36.26 0 0 0 5.23 5.75zM748.39 311.73c93.82 80.43 119.66 220.63 67.79 332.75l66.46 66.46c71.35-120.29 68.79-281.73-16.77-400.69-15.43-21.46-33.15-40.83-52.75-57.7h0.15c-18.44-18.17-46.44-18.17-64.88 0-14.93 13.14-17.3 37.05-5.3 53.39 1.55 2.11 3.33 4.05 5.3 5.79zM523.41 193.41c-0.19-31.85-26.31-45.51-52.13-22.74l-72.8 56.12 124.93 124.93V193.41zM185.98 127.27a41.553 41.553 0 0 0-40.39-11.33 41.544 41.544 0 0 0-29.66 29.66 41.53 41.53 0 0 0 11.33 40.39l134.79 134.8H151.1c-32.06-1.41-59.08 25.89-60.37 60.97-0.03 0.92-0.05 1.84-0.05 2.76v254.96c-0.11 35.11 25.8 63.68 57.88 63.8 0.91 0 1.82-0.02 2.73-0.06h121.13l194.73 150.11c30.28 22.78 56.25 9.12 56.25-22.74V582.15l315.08 315.1c16.23 16.23 42.53 16.23 58.76 0 16.23-16.23 16.23-42.53 0-58.76L185.98 127.27z" p-id="4061" fill="#ffffff"></path></svg>