<?xml version="1.0" encoding="utf-8"?>
<svg version="1.1" xmlns:xlink="http://www.w3.org/1999/xlink" width="10px" height="9px" xmlns="http://www.w3.org/2000/svg">
  <g transform="matrix(1 0 0 1 -331 -206 )">
    <path d="M 5.24553571428571 8.89453125  C 5.17857142857143 8.96484375  5.09672619047619 9  5 9  C 4.90327380952381 9  4.82142857142857 8.96484375  4.75446428571429 8.89453125  L 1.27232142857143 5.3671875  C 1.23511904761905 5.3359375  1.18396577380952 5.28515625  1.11886160714286 5.21484375  C 1.05375744047619 5.14453125  0.950520833333333 5.0166015625  0.809151785714286 4.8310546875  C 0.667782738095238 4.6455078125  0.541294642857143 4.455078125  0.4296875 4.259765625  C 0.318080357142857 4.064453125  0.218563988095238 3.828125  0.131138392857143 3.55078125  C 0.0437127976190476 3.2734375  0 3.00390625  0 2.7421875  C 0 1.8828125  0.236235119047619 1.2109375  0.708705357142857 0.7265625  C 1.1811755952381 0.2421875  1.83407738095238 0  2.66741071428571 0  C 2.89806547619048 0  3.13337053571429 0.0419921874999994  3.37332589285714 0.1259765625  C 3.61328125 0.209960937499999  3.83649553571429 0.323242187499999  4.04296875 0.4658203125  C 4.24944196428572 0.6083984375  4.42708333333333 0.742187499999999  4.57589285714286 0.8671875  C 4.72470238095238 0.992187499999999  4.86607142857143 1.125  5 1.265625  C 5.13392857142857 1.125  5.27529761904762 0.992187499999999  5.42410714285714 0.8671875  C 5.57291666666667 0.742187499999999  5.75055803571429 0.6083984375  5.95703125 0.4658203125  C 6.16350446428571 0.323242187499999  6.38671875 0.209960937499999  6.62667410714286 0.1259765625  C 6.86662946428571 0.0419921874999994  7.10193452380952 0  7.33258928571429 0  C 8.16592261904762 0  8.81882440476191 0.2421875  9.29129464285714 0.7265625  C 9.76376488095238 1.2109375  10 1.8828125  10 2.7421875  C 10 3.60546875  9.57403273809524 4.484375  8.72209821428571 5.37890625  L 5.24553571428571 8.89453125  Z " fill-rule="nonzero" fill="#7f7f7f" stroke="none" transform="matrix(1 0 0 1 331 206 )" />
  </g>
</svg>