<?xml version="1.0" encoding="utf-8"?>
<svg version="1.1" xmlns:xlink="http://www.w3.org/1999/xlink" width="24px" height="25px" xmlns="http://www.w3.org/2000/svg">
  <g transform="matrix(1 0 0 1 -341 -241 )">
    <path d="M 5.9765625 1.67643229166667  C 7.81510416666667 0.558810763888887  9.82291666666667 0  12 0  C 14.1770833333333 0  16.1848958333333 0.558810763888887  18.0234375 1.67643229166667  C 19.8619791666667 2.79405381944444  21.3177083333333 4.31043836805556  22.390625 6.2255859375  C 23.4635416666667 8.14073350694444  24 10.2322048611111  24 12.5  C 24 14.7677951388889  23.4635416666667 16.8592664930556  22.390625 18.7744140625  C 21.3177083333333 20.6895616319444  19.8619791666667 22.2059461805556  18.0234375 23.3235677083333  C 16.1848958333333 24.4411892361111  14.1770833333333 25  12 25  C 9.82291666666667 25  7.81510416666667 24.4411892361111  5.9765625 23.3235677083333  C 4.13802083333333 22.2059461805556  2.68229166666667 20.6895616319444  1.609375 18.7744140625  C 0.536458333333333 16.8592664930556  0 14.7677951388889  0 12.5  C 0 10.2322048611111  0.536458333333333 8.14073350694444  1.609375 6.2255859375  C 2.68229166666667 4.31043836805556  4.13802083333333 2.79405381944444  5.9765625 1.67643229166667  Z M 9.5 18.603515625  L 18 13.3951822916667  C 18.3333333333333 13.1998697916667  18.5 12.9014756944444  18.5 12.5  C 18.5 12.0985243055556  18.3333333333333 11.8001302083333  18 11.6048177083333  L 9.5 6.396484375  C 9.17708333333333 6.19032118055556  8.84375 6.18489583333333  8.5 6.38020833333333  C 8.16666666666667 6.58637152777778  8 6.89019097222222  8 7.29166666666667  L 8 17.7083333333333  C 8 18.1098090277778  8.16666666666667 18.4136284722222  8.5 18.6197916666667  C 8.66666666666667 18.7065972222222  8.83333333333333 18.75  9 18.75  C 9.17708333333333 18.75  9.34375 18.701171875  9.5 18.603515625  Z " fill-rule="nonzero" fill="#7f7f7f" stroke="none" transform="matrix(1 0 0 1 341 241 )" />
  </g>
</svg>