<?xml version="1.0" encoding="utf-8"?>
<svg version="1.1" xmlns:xlink="http://www.w3.org/1999/xlink" width="30px" height="24px" xmlns="http://www.w3.org/2000/svg">
  <g transform="matrix(1 0 0 1 -19 -625 )">
    <path d="M 9.125 4.875  C 9.70833333333333 5.45833333333333  10 6.16666666666666  10 7  C 10 7.83333333333333  9.70833333333333 8.54166666666667  9.125 9.125  C 8.54166666666667 9.70833333333334  7.83333333333333 10  7 10  C 6.16666666666667 10  5.45833333333333 9.70833333333334  4.875 9.125  C 4.29166666666667 8.54166666666667  4 7.83333333333333  4 7  C 4 6.16666666666666  4.29166666666667 5.45833333333333  4.875 4.875  C 5.45833333333333 4.29166666666666  6.16666666666667 4  7 4  C 7.83333333333333 4  8.54166666666667 4.29166666666666  9.125 4.875  Z M 19.5 6.5  L 26 13  L 26 20  L 4 20  L 4 17  L 9 12  L 11.5 14.5  L 19.5 6.5  Z M 27.8515625 2.1484375  C 27.7526041666667 2.04947916666666  27.6354166666667 2  27.5 2  L 2.5 2  C 2.36458333333333 2  2.24739583333333 2.04947916666666  2.1484375 2.1484375  C 2.04947916666667 2.24739583333333  2 2.36458333333333  2 2.5  L 2 21.5  C 2 21.6354166666667  2.04947916666667 21.7526041666667  2.1484375 21.8515625  C 2.24739583333333 21.9505208333333  2.36458333333333 22  2.5 22  L 27.5 22  C 27.6354166666667 22  27.7526041666667 21.9505208333333  27.8515625 21.8515625  C 27.9505208333333 21.7526041666667  28 21.6354166666667  28 21.5  L 28 2.5  C 28 2.36458333333333  27.9505208333333 2.24739583333333  27.8515625 2.1484375  Z M 29.265625 0.734375000000001  C 29.7552083333333 1.22395833333333  30 1.8125  30 2.5  L 30 21.5  C 30 22.1875  29.7552083333333 22.7760416666667  29.265625 23.265625  C 28.7760416666667 23.7552083333333  28.1875 24  27.5 24  L 2.5 24  C 1.8125 24  1.22395833333333 23.7552083333333  0.734375 23.265625  C 0.244791666666667 22.7760416666667  0 22.1875  0 21.5  L 0 2.5  C 0 1.8125  0.244791666666667 1.22395833333333  0.734375 0.734375000000001  C 1.22395833333333 0.244791666666664  1.8125 0  2.5 0  L 27.5 0  C 28.1875 0  28.7760416666667 0.244791666666664  29.265625 0.734375000000001  Z " fill-rule="nonzero" fill="#aaaaaa" stroke="none" transform="matrix(1 0 0 1 19 625 )" />
  </g>
</svg>