<?xml version="1.0" encoding="utf-8"?>
<svg version="1.1" xmlns:xlink="http://www.w3.org/1999/xlink" width="30px" height="26px" xmlns="http://www.w3.org/2000/svg">
  <g transform="matrix(1 0 0 1 -145 -624 )">
    <path d="M 11.8203125 11.8203125  C 12.7005208333333 10.9401041666667  13.7604166666667 10.5  15 10.5  C 16.2395833333333 10.5  17.2994791666667 10.9401041666667  18.1796875 11.8203125  C 19.0598958333333 12.7005208333333  19.5 13.7604166666667  19.5 15  C 19.5 16.2395833333333  19.0598958333333 17.2994791666667  18.1796875 18.1796875  C 17.2994791666667 19.0598958333333  16.2395833333333 19.5  15 19.5  C 13.7604166666667 19.5  12.7005208333333 19.0598958333333  11.8203125 18.1796875  C 10.9401041666667 17.2994791666667  10.5 16.2395833333333  10.5 15  C 10.5 13.7604166666667  10.9401041666667 12.7005208333333  11.8203125 11.8203125  Z M 22.5 4  L 26 4  C 27.1041666666667 4  28.046875 4.390625  28.828125 5.171875  C 29.609375 5.953125  30 6.89583333333333  30 8  L 30 22  C 30 23.1041666666667  29.609375 24.046875  28.828125 24.828125  C 28.046875 25.609375  27.1041666666667 26  26 26  L 4 26  C 2.89583333333333 26  1.953125 25.609375  1.171875 24.828125  C 0.390625 24.046875  0 23.1041666666667  0 22  L 0 8  C 0 6.89583333333333  0.390625 5.953125  1.171875 5.171875  C 1.953125 4.390625  2.89583333333333 4  4 4  L 7.5 4  L 8.296875 1.875  C 8.49479166666667 1.36458333333333  8.85677083333333 0.924479166666665  9.3828125 0.554687499999999  C 9.90885416666667 0.184895833333336  10.4479166666667 0  11 0  L 19 0  C 19.5520833333333 0  20.0911458333333 0.184895833333336  20.6171875 0.554687499999999  C 21.1432291666667 0.924479166666665  21.5052083333333 1.36458333333333  21.703125 1.875  L 22.5 4  Z M 10.0546875 19.9453125  C 11.4244791666667 21.3151041666667  13.0729166666667 22  15 22  C 16.9270833333333 22  18.5755208333333 21.3151041666667  19.9453125 19.9453125  C 21.3151041666667 18.5755208333333  22 16.9270833333333  22 15  C 22 13.0729166666667  21.3151041666667 11.4244791666667  19.9453125 10.0546875  C 18.5755208333333 8.68489583333333  16.9270833333333 8  15 8  C 13.0729166666667 8  11.4244791666667 8.68489583333333  10.0546875 10.0546875  C 8.68489583333333 11.4244791666667  8 13.0729166666667  8 15  C 8 16.9270833333333  8.68489583333333 18.5755208333333  10.0546875 19.9453125  Z " fill-rule="nonzero" fill="#aaaaaa" stroke="none" transform="matrix(1 0 0 1 145 624 )" />
  </g>
</svg>