<?xml version="1.0" encoding="utf-8"?>
<svg version="1.1" xmlns:xlink="http://www.w3.org/1999/xlink" width="10px" height="10px" xmlns="http://www.w3.org/2000/svg">
  <g transform="matrix(1 0 0 1 -48 -143 )">
    <path d="M 53 143  C 55.8 143  58 145.2  58 148  C 58 150.8  55.8 153  53 153  C 50.2 153  48 150.8  48 148  C 48 145.2  50.2 143  53 143  Z " fill-rule="nonzero" fill="#ffffff" stroke="none" />
    <path d="M 53 143.5  C 55.52 143.5  57.5 145.48  57.5 148  C 57.5 150.52  55.52 152.5  53 152.5  C 50.48 152.5  48.5 150.52  48.5 148  C 48.5 145.48  50.48 143.5  53 143.5  Z " stroke-width="1" stroke="#fd7202" fill="none" />
  </g>
</svg>