<?xml version="1.0" standalone="no"?><!DOCTYPE svg PUBLIC "-//W3C//DTD SVG 1.1//EN" "http://www.w3.org/Graphics/SVG/1.1/DTD/svg11.dtd"><svg t="1621157835381" class="icon" viewBox="0 0 1024 1024" version="1.1" xmlns="http://www.w3.org/2000/svg" p-id="14714" xmlns:xlink="http://www.w3.org/1999/xlink" width="200" height="200"><defs><style type="text/css"></style></defs><path d="M196.2527 522.5953m-93.9781 0a4.497 4.497 0 1 0 187.9562 0 4.497 4.497 0 1 0-187.9562 0Z" p-id="14715" fill="#555555"></path><path d="M421.8253 231.1523c0 0-11.264-11.7238-37.6372-11.7238-28.8601 0-52.2449 23.3848-52.2449 52.2449 0 31.7649 25.0567 45.9964 36.7595 49.6327 65.745 42.8617 109.3799 116.7569 109.3799 201.0802 0 84.4904-43.7812 158.511-109.7561 201.31-13.2493 4.2423-36.3833 15.0256-36.3833 49.5282 0 28.8601 23.3848 52.2449 52.2449 52.2449 26.3732 0 37.6372-11.7238 37.6372-11.7238 96.5695-61.1056 160.8934-168.5629 160.8934-291.2967S518.3948 292.2371 421.8253 231.1523z" p-id="14716" fill="#555555"></path><path d="M646.2694 37.6999c0 0-16.9064-6.353-42.6527-6.353-34.6279 0-62.6939 28.0869-62.6939 62.6939 0 24.4924 49.6118 53.3525 66.6854 62.2759 87.855 88.6909 142.2942 210.526 142.2942 345.2343 0 147.9784-65.7868 280.2416-169.3571 370.2282-23.1758 9.1951-39.6225 31.744-39.6225 58.1799 0 34.607 28.066 62.6939 62.6939 62.6939 28.2749 0 45.5784-8.6309 45.5784-8.6309 137.8429-111.0727 226.095-281.2029 226.095-472.0222C875.2901 319.8642 785.7633 148.7099 646.2694 37.6999z" p-id="14717" fill="#555555"></path></svg>