<?xml version="1.0" standalone="no"?><!DOCTYPE svg PUBLIC "-//W3C//DTD SVG 1.1//EN" "http://www.w3.org/Graphics/SVG/1.1/DTD/svg11.dtd"><svg t="1620452231715" class="icon" viewBox="0 0 1024 1024" version="1.1" xmlns="http://www.w3.org/2000/svg" p-id="1898" xmlns:xlink="http://www.w3.org/1999/xlink" width="200" height="200"><defs><style type="text/css"></style></defs><path d="M672.433253 472.011688c22.092173 0 40.000313 17.90814 40.000313 40.000312-2.106016 53.060415-77.902609 53.044414-80.000625 0 0-22.090173 17.90814-40.000313 40.000312-40.000312zM874.30083 149.971172C552.512317-171.137337 0.684005 57.65845 0.256002 512.012v411.897218c-0.696005 80.360628 92.652724 128.607005 157.801233 81.604638l83.27865-58.988461c158.925242 101.640794 375.252932 102.954804 535.848187 3.704029 44.300346-29.304229 4.996039-94.112735-41.448324-68.426535-142.607114 88.188689-336.018625 81.774639-472.087688-16.466129a39.998312 39.998312 0 0 0-46.168361 0.050001l-105.664825 74.844585c-8.96607 6.35005-17.498137 3.126024-20.748163 1.444011-3.252025-1.682013-10.814084-6.778053-10.814084-17.766139V512.012c0-238.207861 193.795514-432.003375 432.003375-432.003375C853.386667 77.218603 1064.032313 469.859671 871.002805 751.785873c-12.272096 18.362143-7.338057 43.204338 11.026086 55.482434 18.368144 12.280096 43.206338 7.342057 55.484433-11.022086 135.961062-197.13554 108.388847-479.779748-63.212494-646.275049zM472.431691 512.012c0 22.092173 17.90814 40.000313 40.000312 40.000313 53.060415-2.106016 53.044414-77.902609 0-80.000625-22.092173 0-40.000313 17.91014-40.000312 40.000312z m-160.00125 0c0 22.092173 17.90814 40.000313 40.000312 40.000313 53.060415-2.106016 53.044414-77.902609 0-80.000625-22.092173 0-40.000313 17.91014-40.000312 40.000312z" p-id="1899"></path></svg>