<svg t="1619778909471" class="icon" viewBox="0 0 1024 1024" version="1.1" xmlns="http://www.w3.org/2000/svg" p-id="2526" width="200" height="200"><path d="M452.309333 172.8a117.333333 117.333333 0 0 1 136.426667-3.114667l4.373333 3.114667 255.957334 192a117.333333 117.333333 0 0 1 46.805333 88.341333L896 458.666667v256a160 160 0 0 1-154.816 159.914666L736 874.666667h-426.666667a160 160 0 0 1-159.914666-154.816L149.333333 714.666667v-256a117.333333 117.333333 0 0 1 42.602667-90.453334l4.330667-3.413333 256.042666-192z m102.4 51.2a53.333333 53.333333 0 0 0-60.586666-2.346667l-3.413334 2.346667L234.666667 416a53.333333 53.333333 0 0 0-21.184 38.826667L213.333333 458.666667v256a96 96 0 0 0 91.477334 95.893333L309.333333 810.666667h426.666667a96 96 0 0 0 95.893333-91.477334L832 714.666667v-256a53.333333 53.333333 0 0 0-18.346667-40.234667L810.666667 416l-255.957334-192z m31.957334 426.666667a32 32 0 0 1 3.072 63.850666l-3.072 0.149334h-128a32 32 0 0 1-3.072-63.850667l3.072-0.149333h128z" p-id="2527"></path></svg>