<?xml version="1.0" standalone="no"?><!DOCTYPE svg PUBLIC "-//W3C//DTD SVG 1.1//EN" "http://www.w3.org/Graphics/SVG/1.1/DTD/svg11.dtd"><svg t="1620452212633" class="icon" viewBox="0 0 1024 1024" version="1.1" xmlns="http://www.w3.org/2000/svg" p-id="1695" xmlns:xlink="http://www.w3.org/1999/xlink" width="200" height="200"><defs><style type="text/css"></style></defs><path d="M823.998781 624.001562h159.999375c22.091914 0 39.999844-17.90793 39.999844-39.999843v-211.999172c0-88.223655-71.77572-159.999375-159.999375-159.999375H591.589689l68.435733-92.033641c78.061695-5.459979 76.317702-117.077543-2.025992-119.965531-36.181859-0.305999-64.759747 32.779872-59.399768 68.505732l-86.955661 116.939544-86.725661-114.047555C432.300311 34.965863 403.270425-0.415998 366.00057 0.004c-76.7517 2.66399-80.713685 111.247565-4.767981 119.811532l70.101726 92.18764H160.001375c-88.223655 0-159.999375 71.77572-159.999375 159.999375v411.99839c0 64.383749 38.225851 120.005531 93.173636 145.367433a119.285534 119.285534 0 0 0-13.173949 54.631786c0 22.091914 17.90793 39.999844 39.999844 39.999844s39.999844-17.90793 39.999844-39.999844c0-22.055914 17.94393-39.999844 39.999844-39.999844h623.997562c22.055914 0 39.999844 17.94393 39.999844 39.999844 0 22.091914 17.90793 39.999844 39.999844 39.999844s39.999844-17.90793 39.999844-39.999844a119.253534 119.253534 0 0 0-13.173949-54.631786c54.947785-25.359901 93.173636-80.983684 93.173636-145.367433 0-22.091914-17.90793-39.999844-39.999844-39.999843s-39.999844 17.90793-39.999843 39.999843c0 44.111828-35.88786 79.999688-79.999688 79.999688h-61.47376c13.651947-23.547908 21.473916-50.877801 21.473916-79.999688z m-79.999687 159.999375c0 44.111828-35.88786 79.999688-79.999688 79.999688h-503.998031c-44.111828 0-79.999688-35.88786-79.999688-79.999688v-411.99839c0-44.111828 35.88786-79.999688 79.999688-79.999688h503.998031c44.111828 0 79.999688 35.88786 79.999688 79.999688z m119.999531-491.998078c44.111828 0 79.999688 35.88786 79.999688 79.999688v171.999328h-119.999532v-171.999328c0-29.121886-7.821969-56.451779-21.473916-79.999688z" p-id="1696" fill="#2c2c2c"></path></svg>