<?xml version="1.0" encoding="utf-8"?>
<svg version="1.1" xmlns:xlink="http://www.w3.org/1999/xlink" width="12px" height="12px" viewBox="79 169.5  12 12" xmlns="http://www.w3.org/2000/svg">
  <path d="M 85 169.5  C 88.36 169.5  91 172.14  91 175.5  C 91 178.86  88.36 181.5  85 181.5  C 81.64 181.5  79 178.86  79 175.5  C 79 172.14  81.64 169.5  85 169.5  Z " fill-rule="nonzero" fill="#ffffff" stroke="none" />
  <path d="M 85 170  C 88.08 170  90.5 172.42  90.5 175.5  C 90.5 178.58  88.08 181  85 181  C 81.92 181  79.5 178.58  79.5 175.5  C 79.5 172.42  81.92 170  85 170  Z " stroke-width="1" stroke="#797979" fill="none" />
  <path d="M 85 178.5  C 83.32 178.5  82 177.18  82 175.5  C 82 173.82  83.32 172.5  85 172.5  C 86.68 172.5  88 173.82  88 175.5  C 88 177.18  86.68 178.5  85 178.5  " fill-rule="nonzero" fill="#797979" stroke="none" />
</svg>