<?xml version="1.0" encoding="utf-8"?>
<svg version="1.1" xmlns:xlink="http://www.w3.org/1999/xlink" width="20px" height="20px" xmlns="http://www.w3.org/2000/svg">
  <g transform="matrix(1 0 0 1 -32 -153 )">
    <path d="M 4.65578424414478 15.3409090909091  C 5.18571090607996 15.8712121212121  5.45067423704755 16.5151515151515  5.45067423704755 17.2727272727273  C 5.45067423704755 18.030303030303  5.18571090607996 18.6742424242424  4.65578424414478 19.2045454545455  C 4.1258575822096 19.7348484848485  3.4823752070026 20  2.72533711852378 20  C 1.96829903004495 20  1.32481665483795 19.7348484848485  0.794889992902768 19.2045454545455  C 0.264963330967589 18.6742424242424  0 18.030303030303  0 17.2727272727273  C 0 16.5151515151515  0.264963330967589 15.8712121212121  0.794889992902768 15.3409090909091  C 1.32481665483795 14.8106060606061  1.96829903004495 14.5454545454545  2.72533711852378 14.5454545454545  C 3.4823752070026 14.5454545454545  4.1258575822096 14.8106060606061  4.65578424414478 15.3409090909091  Z M 11.5755855216466 14.6732954545455  C 12.2143364088006 16.0558712121212  12.5952211970665 17.5047348484848  12.7182398864443 19.0198863636364  C 12.7371658386563 19.2850378787879  12.6567305417554 19.5123106060606  12.4769339957417 19.7017045454545  C 12.3066004258339 19.9005681818182  12.0842204873433 20  11.8097941802697 20  L 9.89354151880766 20  C 9.65696711615803 20  9.45351312987935 19.921875  9.28317955997161 19.765625  C 9.11284599006387 19.609375  9.01821622900402 19.4128787878788  8.99929027679205 19.1761363636364  C 8.79110480246037 17.0075757575758  7.91814525668323 15.1538825757576  6.38041163946061 13.6150568181818  C 4.84267802223799 12.0762310606061  2.99030044949137 11.2026515151515  0.823278921220724 10.9943181818182  C 0.586704518571091 10.9753787878788  0.390347764371895 10.8806818181818  0.234208658623137 10.7102272727273  C 0.078069552874379 10.5397727272727  0 10.3361742424242  0 10.0994318181818  L 0 8.18181818181818  C 0 7.90719696969697  0.099361249112846 7.68465909090909  0.298083747338538 7.51420454545455  C 0.458954341140289 7.3532196969697  0.662408327418973 7.27272727272727  0.908445706174592 7.27272727272727  L 0.979418026969482 7.27272727272727  C 2.49349420392714 7.39583333333333  3.94132954814289 7.77698863636363  5.32292405961675 8.41619318181818  C 6.70451857109061 9.05539772727273  7.92997397681571 9.91477272727273  8.99929027679205 10.9943181818182  C 10.0780695528744 12.0643939393939  10.9368346344925 13.2907196969697  11.5755855216466 14.6732954545455  Z M 18.2824698367637 11.9247159090909  C 19.2950082801041 14.1927083333333  19.8627868464632 16.5672348484848  19.985805535841 19.0482954545455  C 20.004731488053 19.3039772727273  19.9195647030991 19.5265151515152  19.7303051809794 19.7159090909091  C 19.5599716110717 19.905303030303  19.342323160634 20  19.0773598296664 20  L 17.0475514549326 20  C 16.801514076177 20  16.5909628578188 19.9171401515152  16.4158977998581 19.7514204545455  C 16.2408327418973 19.5857007575758  16.148568724864 19.3844696969697  16.139105748758 19.1477272727273  C 16.0255500354862 17.1117424242424  15.5476697421339 15.1775568181818  14.7054648687012 13.3451704545455  C 13.8632599952685 11.5127840909091  12.7679205110007 9.921875  11.4194464158978 8.57244318181818  C 10.0709723207949 7.22301136363637  8.48119233498935 6.12689393939394  6.65010645848119 5.28409090909091  C 4.81902058197303 4.44128787878788  2.88620771232553 3.95833333333333  0.85166784953868 3.83522727272727  C 0.615093446889047 3.82575757575758  0.414005204636858 3.73342803030303  0.248403122782115 3.55823863636364  C 0.0828010409273716 3.38304924242424  0 3.17708333333333  0 2.94034090909091  L 0 0.909090909090908  C 0 0.643939393939392  0.0946297610598533 0.426136363636365  0.28388928317956 0.255681818181819  C 0.454222853087296 0.0852272727272729  0.662408327418973 0  0.908445706174592 0  L 0.951029098651526 0  C 3.43032883841968 0.123106060606057  5.80317009699551 0.691287878787876  8.06955287437899 1.70454545454545  C 10.3359356517625 2.71780303030303  12.3491838183109 4.10984848484848  14.1092973740241 5.88068181818182  C 15.8788739058434 7.64204545454545  17.2699313934232 9.65672348484848  18.2824698367637 11.9247159090909  Z " fill-rule="nonzero" fill="#ffffff" stroke="none" transform="matrix(1 0 0 1 32 153 )" />
  </g>
</svg>