<?xml version="1.0" encoding="utf-8"?>
<svg version="1.1" xmlns:xlink="http://www.w3.org/1999/xlink" width="20px" height="17px" xmlns="http://www.w3.org/2000/svg">
  <g transform="matrix(1 0 0 1 -32 -26 )">
    <path d="M 16.4732142857143 9.11979166666667  C 17.8720238095238 7.73263888888889  18.5714285714286 6.41927083333333  18.5714285714286 5.1796875  C 18.5714285714286 4.58203125  18.491443452381 4.05447048611111  18.3314732142857 3.59700520833333  C 18.1715029761905 3.13953993055555  17.9668898809524 2.77615017361111  17.7176339285714 2.5068359375  C 17.4683779761905 2.23752170138889  17.1651785714286 2.01801215277778  16.8080357142857 1.84830729166667  C 16.4508928571429 1.67860243055555  16.1011904761905 1.56423611111111  15.7589285714286 1.50520833333333  C 15.4166666666667 1.44618055555555  15.0520833333333 1.41666666666667  14.6651785714286 1.41666666666667  C 14.2782738095238 1.41666666666667  13.8616071428571 1.5107421875  13.4151785714286 1.69889322916667  C 12.96875 1.88704427083333  12.5576636904762 2.12315538194444  12.1819196428571 2.4072265625  C 11.8061755952381 2.69129774305555  11.484375 2.95692274305555  11.2165178571429 3.2041015625  C 10.9486607142857 3.45128038194444  10.7254464285714 3.67816840277778  10.546875 3.884765625  C 10.4129464285714 4.04709201388889  10.2306547619048 4.12825520833333  10 4.12825520833333  C 9.76934523809524 4.12825520833333  9.58705357142857 4.04709201388889  9.453125 3.884765625  C 9.27455357142857 3.67816840277778  9.05133928571429 3.45128038194444  8.78348214285714 3.2041015625  C 8.515625 2.95692274305555  8.19382440476191 2.69129774305555  7.81808035714286 2.4072265625  C 7.44233630952381 2.12315538194444  7.03125 1.88704427083333  6.58482142857143 1.69889322916667  C 6.13839285714286 1.5107421875  5.72172619047619 1.41666666666667  5.33482142857143 1.41666666666667  C 4.94791666666667 1.41666666666667  4.58333333333333 1.44618055555555  4.24107142857143 1.50520833333333  C 3.89880952380952 1.56423611111111  3.54910714285714 1.67860243055555  3.19196428571429 1.84830729166667  C 2.83482142857143 2.01801215277778  2.53162202380952 2.23752170138889  2.28236607142857 2.5068359375  C 2.03311011904762 2.77615017361111  1.82849702380952 3.13953993055555  1.66852678571429 3.59700520833333  C 1.50855654761905 4.05447048611111  1.42857142857143 4.58203125  1.42857142857143 5.1796875  C 1.42857142857143 6.41927083333333  2.12425595238095 7.72894965277778  3.515625 9.10872395833333  L 10 15.306640625  L 16.4732142857143 9.11979166666667  Z M 18.5825892857143 1.37239583333333  C 19.5275297619048 2.28732638888889  20 3.55642361111111  20 5.1796875  C 20 6.81032986111111  19.1480654761905 8.47048611111111  17.4441964285714 10.16015625  L 10.4910714285714 16.80078125  C 10.3571428571429 16.93359375  10.1934523809524 17  10 17  C 9.80654761904762 17  9.64285714285714 16.93359375  9.50892857142857 16.80078125  L 2.54464285714286 10.1380208333333  C 2.4702380952381 10.0789930555556  2.36793154761905 9.98307291666667  2.23772321428571 9.85026041666667  C 2.10751488095238 9.71744791666667  1.90104166666667 9.47580295138889  1.61830357142857 9.12532552083333  C 1.33556547619048 8.77484809027778  1.08258928571429 8.41514756944444  0.859375 8.04622395833333  C 0.636160714285714 7.67730034722222  0.437127976190476 7.23090277777778  0.262276785714286 6.70703125  C 0.0874255952380952 6.18315972222222  0 5.67404513888889  0 5.1796875  C 0 3.55642361111111  0.472470238095238 2.28732638888889  1.41741071428571 1.37239583333333  C 2.36235119047619 0.457465277777778  3.66815476190476 0  5.33482142857143 0  C 5.79613095238095 0  6.26674107142857 0.0793185763888878  6.74665178571429 0.237955729166667  C 7.2265625 0.396592881944443  7.67299107142857 0.610568576388888  8.0859375 0.8798828125  C 8.49888392857143 1.14919704861111  8.85416666666667 1.40190972222222  9.15178571428571 1.63802083333333  C 9.44940476190476 1.87413194444444  9.73214285714286 2.125  10 2.390625  C 10.2678571428571 2.125  10.5505952380952 1.87413194444444  10.8482142857143 1.63802083333333  C 11.1458333333333 1.40190972222222  11.5011160714286 1.14919704861111  11.9140625 0.8798828125  C 12.3270089285714 0.610568576388888  12.7734375 0.396592881944443  13.2533482142857 0.237955729166667  C 13.7332589285714 0.0793185763888878  14.203869047619 0  14.6651785714286 0  C 16.3318452380952 0  17.6376488095238 0.457465277777778  18.5825892857143 1.37239583333333  Z " fill-rule="nonzero" fill="#ffffff" stroke="none" transform="matrix(1 0 0 1 32 26 )" />
  </g>
</svg>