<?xml version="1.0" encoding="utf-8"?>
<svg version="1.1" xmlns:xlink="http://www.w3.org/1999/xlink" width="9px" height="15px" xmlns="http://www.w3.org/2000/svg">
  <g transform="matrix(1 0 0 1 -347 -92 )">
    <path d="M 8.84536082474227 7.15430861723447  C 8.94845360824742 7.25450901803607  9 7.36973947895792  9 7.5  C 9 7.63026052104208  8.94845360824742 7.74549098196393  8.84536082474227 7.84569138276553  L 1.63917525773196 14.8496993987976  C 1.5360824742268 14.9498997995992  1.41752577319588 15  1.28350515463918 15  C 1.14948453608247 15  1.03092783505155 14.9498997995992  0.927835051546392 14.8496993987976  L 0.154639175257732 14.0981963927856  C 0.0515463917525774 13.997995991984  0 13.8827655310621  0 13.75250501002  C 0 13.622244488978  0.0515463917525774 13.5070140280561  0.154639175257732 13.4068136272545  L 6.2319587628866 7.5  L 0.154639175257732 1.59318637274549  C 0.0515463917525774 1.49298597194389  0 1.37775551102204  0 1.24749498997996  C 0 1.11723446893787  0.0515463917525774 1.00200400801603  0.154639175257732 0.901803607214428  L 0.927835051546392 0.150300601202405  C 1.03092783505155 0.0501002004008011  1.14948453608247 0  1.28350515463918 0  C 1.41752577319588 0  1.5360824742268 0.0501002004008011  1.63917525773196 0.150300601202405  L 8.84536082474227 7.15430861723447  Z " fill-rule="nonzero" fill="#aaaaaa" stroke="none" transform="matrix(1 0 0 1 347 92 )" />
  </g>
</svg>