<?xml version="1.0" encoding="utf-8"?>
<svg version="1.1" xmlns:xlink="http://www.w3.org/1999/xlink" width="15px" height="13px" xmlns="http://www.w3.org/2000/svg">
  <g transform="matrix(1 0 0 1 -344 -365 )">
    <path d="M 7.5 12.4196428571429  C 7.57920792079208 12.4196428571429  7.61881188118812 12.3809523809524  7.61881188118812 12.3035714285714  C 7.61881188118812 12.2261904761905  7.57920792079208 12.1875  7.5 12.1875  C 7.20792079207921 12.1875  6.95668316831683 12.084728422619  6.74628712871287 11.8791852678571  C 6.53589108910891 11.6736421130952  6.43069306930693 11.4281994047619  6.43069306930693 11.1428571428571  C 6.43069306930693 11.0654761904762  6.39108910891089 11.0267857142857  6.31188118811881 11.0267857142857  C 6.23267326732673 11.0267857142857  6.19306930693069 11.0654761904762  6.19306930693069 11.1428571428571  C 6.19306930693069 11.4959077380952  6.32054455445545 11.7969680059524  6.57549504950495 12.0460379464286  C 6.83044554455446 12.2951078869048  7.13861386138614 12.4196428571429  7.5 12.4196428571429  Z M 4.64851485148515 4.17857142857143  C 4.64851485148515 6.03571428571429  4.30940594059406 7.59542410714286  3.63118811881188 8.85770089285714  L 10.1435643564356 3.34430803571429  C 9.93564356435644 2.91871279761905  9.60767326732673 2.564453125  9.15965346534654 2.28152901785714  C 8.71163366336634 1.99860491071429  8.15841584158416 1.85714285714286  7.5 1.85714285714286  C 7.03960396039604 1.85714285714286  6.6200495049505 1.93331473214286  6.24133663366337 2.08565848214286  C 5.86262376237624 2.23800223214286  5.56188118811881 2.43266369047619  5.33910891089109 2.66964285714286  C 5.11633663366337 2.90662202380952  4.94554455445545 3.15569196428571  4.82673267326733 3.41685267857143  C 4.70792079207921 3.67801339285714  4.64851485148515 3.93191964285714  4.64851485148515 4.17857142857143  Z M 11.4653465346535 6.18080357142857  C 11.7673267326733 7.90252976190476  12.5049504950495 9.24702380952381  13.6782178217822 10.2142857142857  C 13.6782178217822 10.4657738095238  13.5841584158416 10.6834077380952  13.3960396039604 10.8671875  C 13.2079207920792 11.0509672619048  12.9851485148515 11.1428571428571  12.7277227722772 11.1428571428571  L 9.4009900990099 11.1428571428571  C 9.4009900990099 11.655505952381  9.21534653465346 12.0931919642857  8.84405940594059 12.4559151785714  C 8.47277227722772 12.8186383928571  8.02475247524753 13  7.5 13  C 6.97524752475248 13  6.52846534653465 12.8198474702381  6.15965346534653 12.4595424107143  C 5.79084158415842 12.0992373511905  5.6039603960396 11.6627604166667  5.5990099009901 11.1501116071429  L 6.70544554455446 10.2142857142857  L 12.3267326732673 10.2142857142857  C 11.5049504950495 9.30989583333333  10.9430693069307 8.19996279761905  10.6410891089109 6.88448660714286  L 11.4653465346535 6.18080357142857  Z M 14.1571782178218 0.0362723214285718  C 14.2240099009901 0.0411086309523803  14.2772277227723 0.0677083333333324  14.3168316831683 0.116071428571428  L 14.9405940594059 0.8125  C 14.980198019802 0.860863095238094  14.9987623762376 0.917689732142858  14.9962871287129 0.982979910714286  C 14.9938118811881 1.04827008928571  14.9678217821782 1.10267857142857  14.9183168316832 1.14620535714286  L 1.01732673267327 12.9129464285714  C 0.967821782178218 12.9516369047619  0.909653465346535 12.9685639880952  0.842821782178218 12.9637276785714  C 0.775990099009901 12.9588913690476  0.722772277227723 12.9322916666667  0.683168316831683 12.8839285714286  L 0.0594059405940594 12.1875  C 0.0198019801980198 12.1391369047619  0.00123762376237625 12.0823102678571  0.00371287128712871 12.0170200892857  C 0.00618811881188121 11.9517299107143  0.0321782178217822 11.8997395833333  0.0816831683168317 11.8610491071429  L 1.46287128712871 10.6930803571429  C 1.36881188118812 10.538318452381  1.32178217821782 10.3787202380952  1.32178217821782 10.2142857142857  C 1.56930693069307 10.0111607142857  1.79455445544554 9.79836309523809  1.99752475247525 9.57589285714286  C 2.20049504950495 9.35342261904762  2.41089108910891 9.064453125  2.62871287128713 8.708984375  C 2.84653465346535 8.353515625  3.03094059405941 7.97023809523809  3.18193069306931 7.55915178571429  C 3.33292079207921 7.14806547619048  3.45668316831683 6.6499255952381  3.55321782178218 6.06473214285714  C 3.64975247524752 5.47953869047619  3.6980198019802 4.85081845238095  3.6980198019802 4.17857142857143  C 3.6980198019802 3.44345238095238  3.98762376237624 2.76032366071429  4.56683168316832 2.12918526785714  C 5.1460396039604 1.498046875  5.90594059405941 1.11476934523809  6.84653465346535 0.979352678571428  C 6.80693069306931 0.887462797619046  6.78712871287129 0.793154761904762  6.78712871287129 0.696428571428572  C 6.78712871287129 0.50297619047619  6.85643564356436 0.338541666666666  6.9950495049505 0.203125  C 7.13366336633663 0.0677083333333338  7.3019801980198 0  7.5 0  C 7.6980198019802 0  7.86633663366337 0.0677083333333338  8.00495049504951 0.203125  C 8.14356435643565 0.338541666666666  8.21287128712871 0.50297619047619  8.21287128712871 0.696428571428572  C 8.21287128712871 0.793154761904762  8.1930693069307 0.887462797619046  8.15346534653465 0.979352678571428  C 8.76732673267327 1.06640625  9.30940594059406 1.26590401785714  9.77970297029703 1.57784598214286  C 10.25 1.88978794642857  10.6163366336634 2.27064732142857  10.8787128712871 2.72042410714286  L 13.9826732673267 0.0870535714285718  C 14.0321782178218 0.0483630952380943  14.0903465346535 0.031436011904762  14.1571782178218 0.0362723214285718  Z " fill-rule="nonzero" fill="#f71f39" stroke="none" transform="matrix(1 0 0 1 344 365 )" />
  </g>
</svg>