<?xml version="1.0" standalone="no"?><!DOCTYPE svg PUBLIC "-//W3C//DTD SVG 1.1//EN" "http://www.w3.org/Graphics/SVG/1.1/DTD/svg11.dtd"><svg t="1621105134840" class="icon" viewBox="0 0 1024 1024" version="1.1" xmlns="http://www.w3.org/2000/svg" p-id="2606" xmlns:xlink="http://www.w3.org/1999/xlink" width="200" height="200"><defs><style type="text/css"></style></defs><path d="M866.462 551.385V945.23H157.538V551.385h708.924m0-78.77H157.538a78.77 78.77 0 0 0-78.769 78.77V945.23A78.77 78.77 0 0 0 157.54 1024h708.923a78.77 78.77 0 0 0 78.769-78.77V551.386a78.77 78.77 0 0 0-78.77-78.77z" fill="#7F7F7F" p-id="2607"></path><path d="M512 748.308a39.385 39.385 0 0 0-39.385 39.384v196.923a39.385 39.385 0 0 0 78.77 0V787.692A39.385 39.385 0 0 0 512 748.308z m-157.538 0a39.385 39.385 0 0 0-39.385 39.384v196.923a39.385 39.385 0 0 0 78.77 0V787.692a39.385 39.385 0 0 0-39.385-39.384z m315.076 0a39.385 39.385 0 0 0-39.384 39.384v196.923a39.385 39.385 0 0 0 78.77 0V787.692a39.385 39.385 0 0 0-39.386-39.384z m242.373-196.923H112.09C50.255 551.385 0 498.373 0 433.23s50.255-118.154 112.089-118.154h281.757a39.385 39.385 0 0 1 0 78.77H112.09c-18.432 0-33.32 17.643-33.32 39.384s14.888 39.384 33.32 39.384H911.91c18.432 0 33.32-17.644 33.32-39.384s-14.888-39.385-33.32-39.385H630.154a39.385 39.385 0 0 1 0-78.77H911.91c61.755 0 112.089 53.013 112.089 118.155s-50.334 118.154-112.089 118.154z" fill="#7F7F7F" p-id="2608"></path><path d="M669.538 359.424H590.77v-241.27a39.385 39.385 0 0 0-39.384-39.385h-78.77a39.385 39.385 0 0 0-39.384 39.385v236.308h-78.77V118.154C354.462 53.012 407.474 0 472.616 0h78.77c65.142 0 118.153 53.012 118.153 118.154v241.27z" fill="#7F7F7F" p-id="2609"></path></svg>