<svg t="1620632072260" class="icon" viewBox="0 0 1024 1024" version="1.1" xmlns="http://www.w3.org/2000/svg" p-id="5452" width="200" height="200"><path d="M774.30784 305.664h-74.9568c0-103.5264-83.92704-187.55584-187.35104-187.55584s-187.35104 84.02944-187.35104 187.55584h-74.9568c-41.20576 0-74.5472 33.77152-74.5472 75.03872L174.73536 830.8736a75.20256 75.20256 0 0 0 74.9568 75.03872h524.5952a75.20256 75.20256 0 0 0 74.9568-75.03872V380.7232a75.20256 75.20256 0 0 0-74.9568-75.03872zM512 193.1264a112.3328 112.3328 0 0 1 112.4352 112.5376H399.5648a112.3328 112.3328 0 0 1 112.4352-112.5376H512z m0 375.15264c-103.424 0-187.35104-84.02944-187.35104-187.5968h74.93632a112.3328 112.3328 0 0 0 112.4352 112.55808 112.3328 112.3328 0 0 0 112.39424-112.5376h74.9568c0 103.54688-83.94752 187.57632-187.37152 187.57632z" p-id="5453" fill="#ffffff"></path></svg>