<?xml version="1.0" encoding="utf-8"?>
<svg version="1.1" xmlns:xlink="http://www.w3.org/1999/xlink" width="10px" height="15px" xmlns="http://www.w3.org/2000/svg">
  <g transform="matrix(1 0 0 1 -19 -19 )">
    <path d="M 10 2.14019851116625  C 10 2.3014888337469  9.93886743886744 2.44106699751861  9.81660231660232 2.55893300248139  L 4.69111969111969 7.5  L 9.81660231660232 12.4410669975186  C 9.93886743886744 12.5589330024814  10 12.6985111662531  10 12.8598014888337  C 10 13.0210918114144  9.93886743886744 13.1606699751861  9.81660231660232 13.2785359801489  L 8.21428571428571 14.8232009925558  C 8.09202059202059 14.9410669975186  7.94723294723295 15  7.77992277992278 15  C 7.61261261261261 15  7.46782496782497 14.9410669975186  7.34555984555985 14.8232009925558  L 0.183397683397683 7.91873449131514  C 0.0611325611325612 7.80086848635236  0 7.66129032258065  0 7.5  C 0 7.33870967741936  0.0611325611325612 7.19913151364764  0.183397683397683 7.08126550868486  L 7.34555984555985 0.176799007444168  C 7.46782496782497 0.0589330024813889  7.61261261261261 0  7.77992277992278 0  C 7.94723294723295 0  8.09202059202059 0.0589330024813889  8.21428571428571 0.176799007444168  L 9.81660231660232 1.72146401985112  C 9.93886743886744 1.83933002481389  10 1.97890818858561  10 2.14019851116625  Z " fill-rule="nonzero" fill="#ffffff" stroke="none" transform="matrix(1 0 0 1 19 19 )" />
  </g>
</svg>