<?xml version="1.0" encoding="utf-8"?>
<svg version="1.1" xmlns:xlink="http://www.w3.org/1999/xlink" width="30px" height="18px" xmlns="http://www.w3.org/2000/svg">
  <g transform="matrix(1 0 0 1 -6 -3 )">
    <path d="M 0.7470703125 12.49453125  C 0.2490234375 11.38359375  0 10.21875  0 9  C 0 7.78125  0.2490234375 6.61640625  0.7470703125 5.50546875  C 1.2451171875 4.39453125  1.91162109375 3.43828125  2.74658203125 2.63671875  C 3.58154296875 1.83515625  4.57763671875 1.1953125  5.73486328125 0.717187499999999  C 6.89208984375 0.2390625  8.10546875 0  9.375 0  L 20.625 0  C 21.89453125 0  23.10791015625 0.2390625  24.26513671875 0.717187499999999  C 25.42236328125 1.1953125  26.41845703125 1.83515625  27.25341796875 2.63671875  C 28.08837890625 3.43828125  28.7548828125 4.39453125  29.2529296875 5.50546875  C 29.7509765625 6.61640625  30 7.78125  30 9  C 30 10.21875  29.7509765625 11.38359375  29.2529296875 12.49453125  C 28.7548828125 13.60546875  28.08837890625 14.56171875  27.25341796875 15.36328125  C 26.41845703125 16.16484375  25.42236328125 16.8046875  24.26513671875 17.2828125  C 23.10791015625 17.7609375  21.89453125 18  20.625 18  L 9.375 18  C 8.10546875 18  6.89208984375 17.7609375  5.73486328125 17.2828125  C 4.57763671875 16.8046875  3.58154296875 16.16484375  2.74658203125 15.36328125  C 1.91162109375 14.56171875  1.2451171875 13.60546875  0.7470703125 12.49453125  Z M 17.71728515625 15.63046875  C 18.64013671875 16.01015625  19.609375 16.2  20.625 16.2  C 21.640625 16.2  22.60986328125 16.01015625  23.53271484375 15.63046875  C 24.45556640625 15.25078125  25.25390625 14.7375  25.927734375 14.090625  C 26.6015625 13.44375  27.13623046875 12.67734375  27.53173828125 11.79140625  C 27.92724609375 10.90546875  28.125 9.975  28.125 9  C 28.125 8.025  27.92724609375 7.09453125  27.53173828125 6.20859375  C 27.13623046875 5.32265625  26.6015625 4.55625  25.927734375 3.909375  C 25.25390625 3.2625  24.45556640625 2.74921875  23.53271484375 2.36953125  C 22.60986328125 1.98984375  21.640625 1.8  20.625 1.8  C 19.609375 1.8  18.64013671875 1.98984375  17.71728515625 2.36953125  C 16.79443359375 2.74921875  15.99609375 3.2625  15.322265625 3.909375  C 14.6484375 4.55625  14.11376953125 5.32265625  13.71826171875 6.20859375  C 13.32275390625 7.09453125  13.125 8.025  13.125 9  C 13.125 9.975  13.32275390625 10.90546875  13.71826171875 11.79140625  C 14.11376953125 12.67734375  14.6484375 13.44375  15.322265625 14.090625  C 15.99609375 14.7375  16.79443359375 15.25078125  17.71728515625 15.63046875  Z " fill-rule="nonzero" fill="#7f7f7f" stroke="none" transform="matrix(1 0 0 1 6 3 )" />
  </g>
</svg>