<?xml version="1.0" encoding="utf-8"?>
<svg version="1.1" xmlns:xlink="http://www.w3.org/1999/xlink" width="18px" height="26px" xmlns="http://www.w3.org/2000/svg">
  <g transform="matrix(1 0 0 1 -164 -139 )">
    <path d="M 12.181640625 11.73046875  C 13.060546875 10.8841145833333  13.5 9.86284722222222  13.5 8.66666666666667  C 13.5 7.47048611111111  13.060546875 6.44921875  12.181640625 5.60286458333333  C 11.302734375 4.75651041666667  10.2421875 4.33333333333333  9 4.33333333333333  C 7.7578125 4.33333333333333  6.697265625 4.75651041666667  5.818359375 5.60286458333333  C 4.939453125 6.44921875  4.5 7.47048611111111  4.5 8.66666666666667  C 4.5 9.86284722222222  4.939453125 10.8841145833333  5.818359375 11.73046875  C 6.697265625 12.5768229166667  7.7578125 13  9 13  C 10.2421875 13  11.302734375 12.5768229166667  12.181640625 11.73046875  Z M 15.36328125 2.5390625  C 17.12109375 4.23177083333333  18 6.27430555555555  18 8.66666666666667  C 18 9.89670138888889  17.806640625 10.9066840277778  17.419921875 11.6966145833333  L 11.021484375 24.7981770833333  C 10.833984375 25.1705729166667  10.5556640625 25.4639756944444  10.1865234375 25.6783854166667  C 9.8173828125 25.8927951388889  9.421875 26  9 26  C 8.578125 26  8.1826171875 25.8927951388889  7.8134765625 25.6783854166667  C 7.4443359375 25.4639756944444  7.171875 25.1705729166667  6.99609375 24.7981770833333  L 0.580078125 11.6966145833333  C 0.193359375 10.9066840277778  0 9.89670138888889  0 8.66666666666667  C 0 6.27430555555555  0.87890625 4.23177083333333  2.63671875 2.5390625  C 4.39453125 0.846354166666668  6.515625 0  9 0  C 11.484375 0  13.60546875 0.846354166666668  15.36328125 2.5390625  Z " fill-rule="nonzero" fill="#02a7f0" stroke="none" transform="matrix(1 0 0 1 164 139 )" />
  </g>
</svg>