<?xml version="1.0" encoding="utf-8"?>
<svg version="1.1" xmlns:xlink="http://www.w3.org/1999/xlink" width="20px" height="5px" xmlns="http://www.w3.org/2000/svg">
  <g transform="matrix(1 0 0 1 -344 -23 )">
    <path d="M 5.05681818181818 0.364583333333333  C 5.3219696969697 0.607638888888887  5.45454545454545 0.902777777777777  5.45454545454545 1.25  L 5.45454545454545 3.75  C 5.45454545454545 4.09722222222222  5.3219696969697 4.39236111111111  5.05681818181818 4.63541666666667  C 4.79166666666667 4.87847222222222  4.46969696969697 5  4.09090909090909 5  L 1.36363636363636 5  C 0.984848484848485 5  0.662878787878788 4.87847222222222  0.397727272727273 4.63541666666667  C 0.132575757575758 4.39236111111111  0 4.09722222222222  0 3.75  L 0 1.25  C 0 0.902777777777777  0.132575757575758 0.607638888888887  0.397727272727273 0.364583333333333  C 0.662878787878788 0.121527777777777  0.984848484848485 0  1.36363636363636 0  L 4.09090909090909 0  C 4.46969696969697 0  4.79166666666667 0.121527777777777  5.05681818181818 0.364583333333333  Z M 12.3295454545455 0.364583333333333  C 12.594696969697 0.607638888888887  12.7272727272727 0.902777777777777  12.7272727272727 1.25  L 12.7272727272727 3.75  C 12.7272727272727 4.09722222222222  12.594696969697 4.39236111111111  12.3295454545455 4.63541666666667  C 12.0643939393939 4.87847222222222  11.7424242424242 5  11.3636363636364 5  L 8.63636363636364 5  C 8.25757575757576 5  7.93560606060606 4.87847222222222  7.67045454545455 4.63541666666667  C 7.40530303030303 4.39236111111111  7.27272727272727 4.09722222222222  7.27272727272727 3.75  L 7.27272727272727 1.25  C 7.27272727272727 0.902777777777777  7.40530303030303 0.607638888888887  7.67045454545455 0.364583333333333  C 7.93560606060606 0.121527777777777  8.25757575757576 0  8.63636363636364 0  L 11.3636363636364 0  C 11.7424242424242 0  12.0643939393939 0.121527777777777  12.3295454545455 0.364583333333333  Z M 19.6022727272727 0.364583333333333  C 19.8674242424242 0.607638888888887  20 0.902777777777777  20 1.25  L 20 3.75  C 20 4.09722222222222  19.8674242424242 4.39236111111111  19.6022727272727 4.63541666666667  C 19.3371212121212 4.87847222222222  19.0151515151515 5  18.6363636363636 5  L 15.9090909090909 5  C 15.530303030303 5  15.2083333333333 4.87847222222222  14.9431818181818 4.63541666666667  C 14.6780303030303 4.39236111111111  14.5454545454545 4.09722222222222  14.5454545454545 3.75  L 14.5454545454545 1.25  C 14.5454545454545 0.902777777777777  14.6780303030303 0.607638888888887  14.9431818181818 0.364583333333333  C 15.2083333333333 0.121527777777777  15.530303030303 0  15.9090909090909 0  L 18.6363636363636 0  C 19.0151515151515 0  19.3371212121212 0.121527777777777  19.6022727272727 0.364583333333333  Z " fill-rule="nonzero" fill="#ffffff" stroke="none" transform="matrix(1 0 0 1 344 23 )" />
  </g>
</svg>