<svg t="1621736299800" class="icon" viewBox="0 0 1024 1024" version="1.1" xmlns="http://www.w3.org/2000/svg" p-id="2547" width="200" height="200"><path d="M234.666667 426.666667a42.666667 42.666667 0 0 1 42.666666 42.666666v85.333334a42.666667 42.666667 0 0 1-42.666666 42.666666H149.333333a42.666667 42.666667 0 0 1-42.666666-42.666666v-85.333334a42.666667 42.666667 0 0 1 42.666666-42.666666h85.333334z m320 0a42.666667 42.666667 0 0 1 42.666666 42.666666v85.333334a42.666667 42.666667 0 0 1-42.666666 42.666666h-85.333334a42.666667 42.666667 0 0 1-42.666666-42.666666v-85.333334a42.666667 42.666667 0 0 1 42.666666-42.666666h85.333334z m320 0a42.666667 42.666667 0 0 1 42.666666 42.666666v85.333334a42.666667 42.666667 0 0 1-42.666666 42.666666h-85.333334a42.666667 42.666667 0 0 1-42.666666-42.666666v-85.333334a42.666667 42.666667 0 0 1 42.666666-42.666666h85.333334z" fill="#ffffff" p-id="2548"></path></svg>