<svg t="1620959826319" class="icon" viewBox="0 0 1024 1024" version="1.1" xmlns="http://www.w3.org/2000/svg" p-id="2107" width="200" height="200"><path d="M679.765333 597.333333a21.333333 21.333333 0 0 1 16.426667 34.986667l-167.808 201.386667a21.333333 21.333333 0 0 1-32.768 0l-167.808-201.386667a21.333333 21.333333 0 0 1 16.426667-34.986667zM525.653333 187.605333a21.333333 21.333333 0 0 1 2.730667 2.730667l167.808 201.344a21.333333 21.333333 0 0 1-16.426667 34.986667H344.234667a21.333333 21.333333 0 0 1-16.426667-34.986667l167.808-201.386667a21.333333 21.333333 0 0 1 30.037333-2.688z" fill="#999999" p-id="2108"></path></svg>