<?xml version="1.0" standalone="no"?><!DOCTYPE svg PUBLIC "-//W3C//DTD SVG 1.1//EN" "http://www.w3.org/Graphics/SVG/1.1/DTD/svg11.dtd"><svg t="1621156837912" class="icon" viewBox="0 0 1024 1024" version="1.1" xmlns="http://www.w3.org/2000/svg" p-id="8895" xmlns:xlink="http://www.w3.org/1999/xlink" width="200" height="200"><defs><style type="text/css"></style></defs><path d="M819.107078 1024H204.892922C129.626134 1024 68.297641 962.671506 68.297641 887.404719V204.428312l409.785844 136.595281h67.83303L955.702359 204.428312v682.976407c0 75.266788-61.328494 136.595281-136.595281 136.595281z m-271.332123-343.811252h99.426497c25.088929 0 33.451906-13.009074 34.381125-27.876588 0-13.009074-12.079855-39.027223-34.381125-39.027224H546.845735v-24.159709s75.266788-77.125227 94.780399-94.780399c19.513612-17.655172 24.15971-31.593466 12.079855-46.46098s-33.451906-13.938294-49.248639-0.92922-92.92196 84.558984-92.92196 84.558984-65.974592-67.833031-79.912885-81.771325c-13.009074-12.079855-39.956443-24.15971-54.823957-7.433757-14.867514 17.655172-3.716878 39.027223 6.504537 48.319419 9.292196 9.292196 91.99274 96.638838 91.992741 96.638839V613.284936H372.15245c-14.867514 0-28.805808 26.947368-27.876588 41.814883 0.92922 13.938294 12.079855 26.018149 27.876588 26.018148s103.143376-0.92922 103.143376-0.929219v73.408348H367.506352c-14.867514 0-27.876588 15.796733-28.805808 29.735027-0.92922 14.867514 11.150635 34.381125 28.805808 34.381126h106.860254s0 25.088929 0.92922 35.310344c1.858439 23.23049 16.725953 32.522686 37.168784 33.451906 20.442831 0 35.310345-16.725953 35.310345-31.593466v-36.239565H653.705989c16.725953 0 29.735027-16.725953 28.805808-34.381125-1.858439-18.584392-12.079855-31.593466-38.098004-31.593466H547.774955v-72.479129z m-1.85844-406.998185h-67.83303L68.297641 136.595281C68.297641 61.328494 129.626134 0 204.892922 0h614.214156c75.266788 0 136.595281 61.328494 136.595281 136.595281L545.916515 273.190563z" fill="#262626" p-id="8896"></path></svg>