<?xml version="1.0" standalone="no"?><!DOCTYPE svg PUBLIC "-//W3C//DTD SVG 1.1//EN" "http://www.w3.org/Graphics/SVG/1.1/DTD/svg11.dtd"><svg t="1621156992353" class="icon" viewBox="0 0 1188 1024" version="1.1" xmlns="http://www.w3.org/2000/svg" p-id="12131" xmlns:xlink="http://www.w3.org/1999/xlink" width="232.03125" height="200"><defs><style type="text/css"></style></defs><path d="M1036.107246 98.378682h-170.136646L788.621772 11.643358a34.930074 34.930074 0 0 0-25.646163-11.643358h-343.658586a34.571028 34.571028 0 0 0-25.235824 10.976558l-82.067722 87.196954H152.64822A153.569225 153.569225 0 0 0 0.002257 252.563414v617.303146a153.569225 153.569225 0 0 0 152.645963 154.13344H1036.107246a153.569225 153.569225 0 0 0 152.645963-154.13344V252.409537A153.46664 153.46664 0 0 0 1036.107246 98.378682z" fill="#2B2B2B" p-id="12132"></path><path d="M599.096627 835.654578c-151.055901 0-273.798437-124.127429-273.798437-276.51693s123.101583-276.51693 273.798437-276.516931 273.798437 124.127429 273.798437 276.516931-123.101583 276.51693-273.798437 276.51693z m0-482.712082A206.195151 206.195151 0 1 0 803.240085 559.086355a205.169305 205.169305 0 0 0-204.143458-206.143859z m0 0M955.321832 320.115408a45.547586 45.547586 0 1 0 45.547586-46.163094 45.752755 45.752755 0 0 0-45.547586 46.163094z m0 0" fill="#FFFFFF" p-id="12133"></path></svg>