<?xml version="1.0" encoding="utf-8"?>
<svg version="1.1" xmlns:xlink="http://www.w3.org/1999/xlink" width="20px" height="20px" xmlns="http://www.w3.org/2000/svg">
  <g transform="matrix(1 0 0 1 -340 -583 )">
    <path d="M 15.5859375 11.4192708333333  C 15.7508680555556 11.2543402777778  15.8333333333333 11.0590277777778  15.8333333333333 10.8333333333333  L 15.8333333333333 9.16666666666667  C 15.8333333333333 8.94097222222222  15.7508680555556 8.74565972222222  15.5859375 8.58072916666667  C 15.4210069444444 8.41579861111111  15.2256944444444 8.33333333333333  15 8.33333333333333  L 11.6666666666667 8.33333333333333  L 11.6666666666667 5  C 11.6666666666667 4.77430555555555  11.5842013888889 4.57899305555555  11.4192708333333 4.4140625  C 11.2543402777778 4.24913194444444  11.0590277777778 4.16666666666667  10.8333333333333 4.16666666666667  L 9.16666666666667 4.16666666666667  C 8.94097222222222 4.16666666666667  8.74565972222222 4.24913194444444  8.58072916666667 4.4140625  C 8.41579861111111 4.57899305555555  8.33333333333333 4.77430555555555  8.33333333333333 5  L 8.33333333333333 8.33333333333333  L 5 8.33333333333333  C 4.77430555555556 8.33333333333333  4.57899305555556 8.41579861111111  4.4140625 8.58072916666667  C 4.24913194444444 8.74565972222222  4.16666666666667 8.94097222222222  4.16666666666667 9.16666666666667  L 4.16666666666667 10.8333333333333  C 4.16666666666667 11.0590277777778  4.24913194444444 11.2543402777778  4.4140625 11.4192708333333  C 4.57899305555556 11.5842013888889  4.77430555555556 11.6666666666667  5 11.6666666666667  L 8.33333333333333 11.6666666666667  L 8.33333333333333 15  C 8.33333333333333 15.2256944444444  8.41579861111111 15.4210069444444  8.58072916666667 15.5859375  C 8.74565972222222 15.7508680555556  8.94097222222222 15.8333333333333  9.16666666666667 15.8333333333333  L 10.8333333333333 15.8333333333333  C 11.0590277777778 15.8333333333333  11.2543402777778 15.7508680555556  11.4192708333333 15.5859375  C 11.5842013888889 15.4210069444444  11.6666666666667 15.2256944444444  11.6666666666667 15  L 11.6666666666667 11.6666666666667  L 15 11.6666666666667  C 15.2256944444444 11.6666666666667  15.4210069444444 11.5842013888889  15.5859375 11.4192708333333  Z M 18.6588541666667 4.98046875  C 19.5529513888889 6.51258680555555  20 8.18576388888889  20 10  C 20 11.8142361111111  19.5529513888889 13.4874131944444  18.6588541666667 15.01953125  C 17.7647569444444 16.5516493055556  16.5516493055556 17.7647569444444  15.01953125 18.6588541666667  C 13.4874131944444 19.5529513888889  11.8142361111111 20  10 20  C 8.18576388888889 20  6.51258680555556 19.5529513888889  4.98046875 18.6588541666667  C 3.44835069444444 17.7647569444444  2.23524305555556 16.5516493055556  1.34114583333333 15.01953125  C 0.447048611111111 13.4874131944444  0 11.8142361111111  0 10  C 0 8.18576388888889  0.447048611111111 6.51258680555555  1.34114583333333 4.98046875  C 2.23524305555556 3.44835069444444  3.44835069444444 2.23524305555555  4.98046875 1.34114583333333  C 6.51258680555556 0.447048611111109  8.18576388888889 0  10 0  C 11.8142361111111 0  13.4874131944444 0.447048611111109  15.01953125 1.34114583333333  C 16.5516493055556 2.23524305555555  17.7647569444444 3.44835069444444  18.6588541666667 4.98046875  Z " fill-rule="nonzero" fill="#7f7f7f" stroke="none" transform="matrix(1 0 0 1 340 583 )" />
  </g>
</svg>