<?xml version="1.0" encoding="utf-8"?>
<svg version="1.1" xmlns:xlink="http://www.w3.org/1999/xlink" width="15px" height="13px" xmlns="http://www.w3.org/2000/svg">
  <g transform="matrix(1 0 0 1 -345 -19 )">
    <path d="M 14.814453125 10.59296875  C 14.9381510416667 10.7216145833333  15 10.8739583333333  15 11.05  L 15 12.35  C 15 12.5260416666667  14.9381510416667 12.6783854166667  14.814453125 12.80703125  C 14.6907552083333 12.9356770833333  14.5442708333333 13  14.375 13  L 0.625 13  C 0.455729166666667 13  0.309244791666667 12.9356770833333  0.185546875 12.80703125  C 0.0618489583333333 12.6783854166667  0 12.5260416666667  0 12.35  L 0 11.05  C 0 10.8739583333333  0.0618489583333333 10.7216145833333  0.185546875 10.59296875  C 0.309244791666667 10.4643229166667  0.455729166666667 10.4  0.625 10.4  L 14.375 10.4  C 14.5442708333333 10.4  14.6907552083333 10.4643229166667  14.814453125 10.59296875  Z M 14.814453125 5.39296875  C 14.9381510416667 5.52161458333333  15 5.67395833333333  15 5.85  L 15 7.15  C 15 7.32604166666667  14.9381510416667 7.47838541666667  14.814453125 7.60703125  C 14.6907552083333 7.73567708333333  14.5442708333333 7.8  14.375 7.8  L 0.625 7.8  C 0.455729166666667 7.8  0.309244791666667 7.73567708333333  0.185546875 7.60703125  C 0.0618489583333333 7.47838541666667  0 7.32604166666667  0 7.15  L 0 5.85  C 0 5.67395833333333  0.0618489583333333 5.52161458333333  0.185546875 5.39296875  C 0.309244791666667 5.26432291666667  0.455729166666667 5.2  0.625 5.2  L 14.375 5.2  C 14.5442708333333 5.2  14.6907552083333 5.26432291666667  14.814453125 5.39296875  Z M 14.814453125 0.192968750000001  C 14.9381510416667 0.321614583333332  15 0.473958333333332  15 0.650000000000001  L 15 1.95  C 15 2.12604166666667  14.9381510416667 2.27838541666667  14.814453125 2.40703125  C 14.6907552083333 2.53567708333333  14.5442708333333 2.6  14.375 2.6  L 0.625 2.6  C 0.455729166666667 2.6  0.309244791666667 2.53567708333333  0.185546875 2.40703125  C 0.0618489583333333 2.27838541666667  0 2.12604166666667  0 1.95  L 0 0.650000000000001  C 0 0.473958333333332  0.0618489583333333 0.321614583333332  0.185546875 0.192968750000001  C 0.309244791666667 0.0643229166666659  0.455729166666667 0  0.625 0  L 14.375 0  C 14.5442708333333 0  14.6907552083333 0.0643229166666659  14.814453125 0.192968750000001  Z " fill-rule="nonzero" fill="#f71f39" stroke="none" transform="matrix(1 0 0 1 345 19 )" />
  </g>
</svg>