<svg t="1621152586980" class="icon" viewBox="0 0 1024 1024" version="1.1" xmlns="http://www.w3.org/2000/svg" p-id="8597" width="200" height="200"><path d="M167.5264 421.888c-5.632 0-10.24-4.608-10.24-10.24V236.1856c0-38.656 31.4368-70.0928 70.0928-70.0928h176.5376c5.632 0 10.24 4.608 10.24 10.24s-4.608 10.24-10.24 10.24H227.4304c-27.3408 0-49.6128 22.272-49.6128 49.6128V411.648c-0.0512 5.6832-4.608 10.24-10.2912 10.24zM862.3616 421.888c-5.632 0-10.24-4.608-10.24-10.24V236.1856c0-27.3408-22.272-49.6128-49.6128-49.6128h-176.5376c-5.632 0-10.24-4.608-10.24-10.24s4.608-10.24 10.24-10.24h176.5376c38.656 0 70.0928 31.4368 70.0928 70.0928V411.648a10.24 10.24 0 0 1-10.24 10.24zM403.9168 863.9488H227.4304c-38.656 0-70.0928-31.4368-70.0928-70.0928v-175.4624c0-5.632 4.608-10.24 10.24-10.24s10.24 4.608 10.24 10.24v175.4624c0 27.3408 22.272 49.6128 49.6128 49.6128H403.968c5.632 0 10.24 4.608 10.24 10.24s-4.6592 10.24-10.2912 10.24zM802.4576 863.9488h-176.5376c-5.632 0-10.24-4.608-10.24-10.24s4.608-10.24 10.24-10.24h176.5376c27.3408 0 49.6128-22.272 49.6128-49.6128v-175.4624c0-5.632 4.608-10.24 10.24-10.24s10.24 4.608 10.24 10.24v175.4624c0.0512 38.656-31.4368 70.0928-70.0928 70.0928zM725.7088 525.2608H304.128c-5.632 0-10.24-4.608-10.24-10.24s4.608-10.24 10.24-10.24h421.5808a10.24 10.24 0 1 1 0 20.48z" p-id="8598" fill="#bfbfbf"></path></svg>