<?xml version="1.0" encoding="utf-8"?>
<svg version="1.1" xmlns:xlink="http://www.w3.org/1999/xlink" width="10px" height="16px" xmlns="http://www.w3.org/2000/svg">
  <g transform="matrix(1 0 0 1 -20 -38 )">
    <path d="M 10 2.28287841191067  C 10 2.45492142266336  9.93886743886744 2.60380479735318  9.81660231660232 2.72952853598015  L 4.69111969111969 8  L 9.81660231660232 13.2704714640199  C 9.93886743886744 13.3961952026468  10 13.5450785773366  10 13.7171215880893  C 10 13.889164598842  9.93886743886744 14.0380479735318  9.81660231660232 14.1637717121588  L 8.21428571428571 15.8114143920596  C 8.09202059202059 15.9371381306865  7.94723294723295 16  7.77992277992278 16  C 7.61261261261261 16  7.46782496782497 15.9371381306865  7.34555984555985 15.8114143920596  L 0.183397683397683 8.44665012406948  C 0.0611325611325612 8.32092638544251  0 8.17204301075269  0 8  C 0 7.82795698924731  0.0611325611325612 7.67907361455748  0.183397683397683 7.55334987593052  L 7.34555984555985 0.188585607940446  C 7.46782496782497 0.0628618693134815  7.61261261261261 0  7.77992277992278 0  C 7.94723294723295 0  8.09202059202059 0.0628618693134815  8.21428571428571 0.188585607940446  L 9.81660231660232 1.83622828784119  C 9.93886743886744 1.96195202646815  10 2.11083540115798  10 2.28287841191067  Z " fill-rule="nonzero" fill="#797979" stroke="none" transform="matrix(1 0 0 1 20 38 )" />
  </g>
</svg>