<svg t="1621911338156" class="icon" viewBox="0 0 1024 1024" version="1.1" xmlns="http://www.w3.org/2000/svg" p-id="2643" width="200" height="200"><path d="M1007.39693 473.546964l-188.843982 163.827817c-11.892728 11.736897-17.316704 28.639233-14.511749 45.208658l44.592417 263.159365c3.486716 20.853002 0.005312 35.795057-16.888169 48.250901a54.49476 54.49476 0 0 1-32.292404 10.62129 54.289347 54.289347 0 0 1-25.540324-6.394378l-238.444237-130.102831a49.904833 49.904833 0 0 0-46.95113 0L260.085248 998.220617c-18.508456 9.870468-40.916226 8.204141-57.864603-4.226912-16.888169-12.454073-30.379935-27.373107-26.833012-48.250901l54.624029-268.616987c2.804955-16.571195-2.61725-33.473531-14.509978-45.208657L16.62432 473.546964c-15.021741-14.763203-20.378427-36.864623-13.952175-56.996908 6.479376-20.126972 23.643791-34.780386 44.351588-37.836795L305.711815 332.752011c16.424219-2.417149 30.622535-12.861358 37.973148-27.927369L462.782239 50.38118c9.224124-18.988345 28.311634-31.001487 49.240781-31.001488 20.930918 0 39.956449 12.013143 49.242552 31.001488l114.42058 254.438149c7.350613 15.071323 21.548929 25.515533 37.983773 27.937995l263.350612 45.955937c20.656443 3.028077 37.872212 17.709823 44.302005 37.842108 6.452814 20.126972 1.014671 42.226622-13.92207 56.996908l-0.003542-0.005313z" p-id="2644" fill="#fd7202"></path></svg>