<?xml version="1.0" encoding="utf-8"?>
<svg version="1.1" xmlns:xlink="http://www.w3.org/1999/xlink" width="20px" height="15px" xmlns="http://www.w3.org/2000/svg">
  <g transform="matrix(1 0 0 1 -5 -5 )">
    <path d="M 14.8493303571429 11.7513020833333  C 16.3411458333333 10.6966145833333  17.5818452380952 9.27951388888889  18.5714285714286 7.5  C 17.4404761904762 5.45138888888889  16.0230654761905 3.91927083333333  14.3191964285714 2.90364583333333  C 14.7730654761905 3.80642361111111  15 4.78298611111111  15 5.83333333333333  C 15 7.43923611111111  14.5107886904762 8.81293402777778  13.5323660714286 9.95442708333333  C 12.553943452381 11.0959201388889  11.3764880952381 11.6666666666667  10 11.6666666666667  C 8.62351190476191 11.6666666666667  7.44605654761905 11.0959201388889  6.46763392857143 9.95442708333333  C 5.48921130952381 8.81293402777778  5 7.43923611111111  5 5.83333333333333  C 5 4.78298611111111  5.22693452380952 3.80642361111111  5.68080357142857 2.90364583333333  C 3.97693452380952 3.91927083333333  2.55952380952381 5.45138888888889  1.42857142857143 7.5  C 2.41815476190476 9.27951388888889  3.65885416666667 10.6966145833333  5.15066964285714 11.7513020833333  C 6.64248511904762 12.8059895833333  8.25892857142857 13.3333333333333  10 13.3333333333333  C 11.7410714285714 13.3333333333333  13.3575148809524 12.8059895833333  14.8493303571429 11.7513020833333  Z M 10.3794642857143 2.94270833333333  C 10.483630952381 2.82118055555556  10.5357142857143 2.67361111111111  10.5357142857143 2.5  C 10.5357142857143 2.32638888888889  10.483630952381 2.17881944444444  10.3794642857143 2.05729166666667  C 10.2752976190476 1.93576388888889  10.1488095238095 1.875  10 1.875  C 9.06994047619048 1.875  8.27194940476191 2.26345486111111  7.60602678571429 3.04036458333333  C 6.94010416666667 3.81727430555556  6.60714285714286 4.74826388888889  6.60714285714286 5.83333333333333  C 6.60714285714286 6.00694444444444  6.65922619047619 6.15451388888889  6.76339285714286 6.27604166666667  C 6.86755952380952 6.39756944444444  6.99404761904762 6.45833333333333  7.14285714285714 6.45833333333333  C 7.29166666666667 6.45833333333333  7.41815476190476 6.39756944444444  7.52232142857143 6.27604166666667  C 7.62648809523809 6.15451388888889  7.67857142857143 6.00694444444444  7.67857142857143 5.83333333333333  C 7.67857142857143 5.08680555555556  7.90550595238095 4.44878472222222  8.359375 3.91927083333333  C 8.81324404761905 3.38975694444444  9.36011904761905 3.125  10 3.125  C 10.1488095238095 3.125  10.2752976190476 3.06423611111111  10.3794642857143 2.94270833333333  Z M 19.7767857142857 6.6015625  C 19.9255952380952 6.90538194444444  20 7.20486111111111  20 7.5  C 20 7.79513888888889  19.9255952380952 8.09461805555556  19.7767857142857 8.3984375  C 18.7351190476191 10.3949652777778  17.3344494047619 11.9943576388889  15.5747767857143 13.1966145833333  C 13.8151041666667 14.3988715277778  11.9568452380952 15  10 15  C 8.04315476190476 15  6.18489583333333 14.3967013888889  4.42522321428571 13.1901041666667  C 2.6655505952381 11.9835069444444  1.26488095238095 10.3862847222222  0.223214285714286 8.3984375  C 0.0744047619047619 8.09461805555556  0 7.79513888888889  0 7.5  C 0 7.20486111111111  0.0744047619047619 6.90538194444444  0.223214285714286 6.6015625  C 1.26488095238095 4.61371527777778  2.6655505952381 3.01649305555555  4.42522321428571 1.80989583333333  C 6.18489583333333 0.60329861111111  8.04315476190476 0  10 0  C 11.9568452380952 0  13.8151041666667 0.60329861111111  15.5747767857143 1.80989583333333  C 17.3344494047619 3.01649305555555  18.7351190476191 4.61371527777778  19.7767857142857 6.6015625  Z " fill-rule="nonzero" fill="#7f7f7f" stroke="none" transform="matrix(1 0 0 1 5 5 )" />
  </g>
</svg>