<svg t="1620781346007" class="icon" viewBox="0 0 1024 1024" version="1.1" xmlns="http://www.w3.org/2000/svg" p-id="9491" width="200" height="200"><path d="M586.24 538.624a189.44 189.44 0 0 0 102.4-168.96 185.344 185.344 0 0 0-183.296-188.416 185.344 185.344 0 0 0-181.76 188.416 189.44 189.44 0 0 0 102.4 169.984 232.448 232.448 0 0 0-204.8 233.984v13.312c0 34.816 23.04 56.832 70.144 66.56a843.264 843.264 0 0 0 157.184 8.704h129.024c121.856 0 227.328 0 227.328-75.264v-13.312a231.936 231.936 0 0 0-218.624-235.008z" fill="#ffffff" p-id="9492"></path></svg>