<?xml version="1.0" encoding="utf-8"?>
<svg version="1.1" xmlns:xlink="http://www.w3.org/1999/xlink" width="19px" height="31px" xmlns="http://www.w3.org/2000/svg">
  <g transform="matrix(1 0 0 1 0 -199 )">
    <path d="M 18.6735395189003 1.86372745490982  C 18.8911798396335 2.07080828323313  19 2.30895123580494  19 2.57815631262525  C 19 2.84736138944556  18.8911798396335 3.08550434201737  18.6735395189003 3.29258517034068  L 5.84364261168385 15.5  L 18.6735395189003 27.7074148296593  C 18.8911798396335 27.9144956579826  19 28.1526386105544  19 28.4218436873748  C 19 28.6910487641951  18.8911798396335 28.9291917167669  18.6735395189003 29.1362725450902  L 17.0412371134021 30.689378757515  C 16.823596792669 30.8964595858383  16.5733104238259 31  16.2903780068729 31  C 16.0074455899198 31  15.7571592210767 30.8964595858383  15.5395189003436 30.689378757515  L 0.326460481099656 16.2144288577154  C 0.108820160366552 16.0073480293921  0 15.7692050768203  0 15.5  C 0 15.2307949231797  0.108820160366552 14.9926519706079  0.326460481099656 14.7855711422846  L 15.5395189003436 0.31062124248497  C 15.7571592210767 0.103540414161656  16.0074455899198 0  16.2903780068729 0  C 16.5733104238259 0  16.823596792669 0.103540414161656  17.0412371134021 0.31062124248497  L 18.6735395189003 1.86372745490982  Z " fill-rule="nonzero" fill="#8c8c8c" stroke="none" transform="matrix(1 0 0 1 0 199 )" />
  </g>
</svg>