<?xml version="1.0" encoding="utf-8"?>
<svg version="1.1" xmlns:xlink="http://www.w3.org/1999/xlink" width="13px" height="12px" xmlns="http://www.w3.org/2000/svg">
  <g transform="matrix(1 0 0 1 -1 -2 )">
    <path d="M 6.81919642857143 11.859375  C 6.73214285714286 11.953125  6.62574404761905 12  6.5 12  C 6.37425595238095 12  6.26785714285714 11.953125  6.18080357142857 11.859375  L 1.65401785714286 7.15625  C 1.60565476190476 7.11458333333333  1.53915550595238 7.046875  1.45452008928571 6.953125  C 1.36988467261905 6.859375  1.23567708333333 6.68880208333333  1.05189732142857 6.44140625  C 0.86811755952381 6.19401041666667  0.703683035714286 5.94010416666667  0.55859375 5.6796875  C 0.413504464285714 5.41927083333333  0.28413318452381 5.10416666666667  0.170479910714286 4.734375  C 0.0568266369047619 4.36458333333333  0 4.00520833333333  0 3.65625  C 0 2.51041666666667  0.307105654761905 1.61458333333333  0.921316964285714 0.96875  C 1.53552827380952 0.322916666666667  2.38430059523809 0  3.46763392857143 0  C 3.76748511904762 0  4.07338169642857 0.0559895833333326  4.38532366071429 0.16796875  C 4.697265625 0.279947916666666  4.98744419642857 0.430989583333333  5.255859375 0.62109375  C 5.52427455357143 0.811197916666666  5.75520833333333 0.989583333333332  5.94866071428571 1.15625  C 6.1421130952381 1.32291666666667  6.32589285714286 1.5  6.5 1.6875  C 6.67410714285714 1.5  6.85788690476191 1.32291666666667  7.05133928571429 1.15625  C 7.24479166666667 0.989583333333332  7.47572544642857 0.811197916666666  7.744140625 0.62109375  C 8.01255580357143 0.430989583333333  8.302734375 0.279947916666666  8.61467633928571 0.16796875  C 8.92661830357143 0.0559895833333326  9.23251488095238 0  9.53236607142857 0  C 10.6156994047619 0  11.4644717261905 0.322916666666667  12.0786830357143 0.96875  C 12.6928943452381 1.61458333333333  13 2.51041666666667  13 3.65625  C 13 4.80729166666667  12.4462425595238 5.97916666666667  11.3387276785714 7.171875  L 6.81919642857143 11.859375  Z " fill-rule="nonzero" fill="#7f7f7f" stroke="none" transform="matrix(1 0 0 1 1 2 )" />
  </g>
</svg>