<?xml version="1.0" encoding="utf-8"?>
<svg version="1.1" xmlns:xlink="http://www.w3.org/1999/xlink" width="20px" height="20px" xmlns="http://www.w3.org/2000/svg">
  <g transform="matrix(1 0 0 1 -243 -627 )">
    <path d="M 4.58333333333333 13.4375  L 5.26041666666667 12.7604166666667  L 7.23958333333333 14.7395833333333  L 6.5625 15.4166666666667  L 5.83333333333333 15.4166666666667  L 5.83333333333333 14.1666666666667  L 4.58333333333333 14.1666666666667  L 4.58333333333333 13.4375  Z M 10.2604166666667 7.72135416666667  C 10.4079861111111 7.57378472222222  10.5381944444444 7.56076388888889  10.6510416666667 7.68229166666667  C 10.7725694444444 7.79513888888889  10.7595486111111 7.92534722222222  10.6119791666667 8.07291666666667  L 6.82291666666667 11.8619791666667  C 6.67534722222222 12.0095486111111  6.54513888888889 12.0225694444444  6.43229166666667 11.9010416666667  C 6.31076388888889 11.7881944444444  6.32378472222222 11.6579861111111  6.47135416666667 11.5104166666667  L 10.2604166666667 7.72135416666667  Z M 3.33333333333333 16.6666666666667  L 7.08333333333333 16.6666666666667  L 14.1666666666667 9.58333333333333  L 10.4166666666667 5.83333333333333  L 3.33333333333333 12.9166666666667  L 3.33333333333333 16.6666666666667  Z M 11.25 5  L 15 8.75  L 16.1979166666667 7.55208333333333  C 16.4409722222222 7.30902777777778  16.5625 7.01388888888889  16.5625 6.66666666666667  C 16.5625 6.31944444444444  16.4409722222222 6.02430555555555  16.1979166666667 5.78125  L 14.21875 3.80208333333333  C 13.9756944444444 3.55902777777778  13.6805555555556 3.4375  13.3333333333333 3.4375  C 12.9861111111111 3.4375  12.6909722222222 3.55902777777778  12.4479166666667 3.80208333333333  L 11.25 5  Z M 18.8997395833333 1.10026041666667  C 19.6332465277778 1.83376736111111  20 2.71701388888889  20 3.75  L 20 16.25  C 20 17.2829861111111  19.6332465277778 18.1662326388889  18.8997395833333 18.8997395833333  C 18.1662326388889 19.6332465277778  17.2829861111111 20  16.25 20  L 3.75 20  C 2.71701388888889 20  1.83376736111111 19.6332465277778  1.10026041666667 18.8997395833333  C 0.366753472222222 18.1662326388889  0 17.2829861111111  0 16.25  L 0 3.75  C 0 2.71701388888889  0.366753472222222 1.83376736111111  1.10026041666667 1.10026041666667  C 1.83376736111111 0.366753472222221  2.71701388888889 0  3.75 0  L 16.25 0  C 17.2829861111111 0  18.1662326388889 0.366753472222221  18.8997395833333 1.10026041666667  Z " fill-rule="nonzero" fill="#333333" stroke="none" transform="matrix(1 0 0 1 243 627 )" />
  </g>
</svg>