<?xml version="1.0" encoding="utf-8"?>
<svg version="1.1" xmlns:xlink="http://www.w3.org/1999/xlink" width="16px" height="20px" xmlns="http://www.w3.org/2000/svg">
  <g transform="matrix(1 0 0 1 -6 -2 )">
    <path d="M 15.7361111111111 7.92067307692308  C 15.912037037037 8.07291666666666  16 8.25320512820513  16 8.46153846153846  L 16 10  C 16 11.7708333333333  15.3171296296296 13.3112980769231  13.9513888888889 14.6213942307692  C 12.5856481481481 15.9314903846154  10.8981481481481 16.6826923076923  8.88888888888889 16.875  L 8.88888888888889 18.4615384615385  L 12.4444444444444 18.4615384615385  C 12.6851851851852 18.4615384615385  12.8935185185185 18.5376602564103  13.0694444444444 18.6899038461538  C 13.2453703703704 18.8421474358974  13.3333333333333 19.0224358974359  13.3333333333333 19.2307692307692  C 13.3333333333333 19.4391025641026  13.2453703703704 19.619391025641  13.0694444444444 19.7716346153846  C 12.8935185185185 19.9238782051282  12.6851851851852 20  12.4444444444444 20  L 3.55555555555556 20  C 3.31481481481481 20  3.10648148148148 19.9238782051282  2.93055555555556 19.7716346153846  C 2.75462962962963 19.619391025641  2.66666666666667 19.4391025641026  2.66666666666667 19.2307692307692  C 2.66666666666667 19.0224358974359  2.75462962962963 18.8421474358974  2.93055555555556 18.6899038461538  C 3.10648148148148 18.5376602564103  3.31481481481481 18.4615384615385  3.55555555555556 18.4615384615385  L 7.11111111111111 18.4615384615385  L 7.11111111111111 16.875  C 5.10185185185185 16.6826923076923  3.41435185185185 15.9314903846154  2.04861111111111 14.6213942307692  C 0.68287037037037 13.3112980769231  0 11.7708333333333  0 10  L 0 8.46153846153846  C 0 8.25320512820513  0.087962962962963 8.07291666666666  0.263888888888889 7.92067307692308  C 0.439814814814815 7.76842948717949  0.648148148148148 7.69230769230769  0.888888888888889 7.69230769230769  C 1.12962962962963 7.69230769230769  1.33796296296296 7.76842948717949  1.51388888888889 7.92067307692308  C 1.68981481481481 8.07291666666666  1.77777777777778 8.25320512820513  1.77777777777778 8.46153846153846  L 1.77777777777778 10  C 1.77777777777778 11.4823717948718  2.38657407407407 12.7504006410256  3.60416666666667 13.8040865384615  C 4.82175925925926 14.8577724358974  6.28703703703704 15.3846153846154  8 15.3846153846154  C 9.71296296296296 15.3846153846154  11.1782407407407 14.8577724358974  12.3958333333333 13.8040865384615  C 13.6134259259259 12.7504006410256  14.2222222222222 11.4823717948718  14.2222222222222 10  L 14.2222222222222 8.46153846153846  C 14.2222222222222 8.25320512820513  14.3101851851852 8.07291666666666  14.4861111111111 7.92067307692308  C 14.662037037037 7.76842948717949  14.8703703703704 7.69230769230769  15.1111111111111 7.69230769230769  C 15.3518518518519 7.69230769230769  15.5601851851852 7.76842948717949  15.7361111111111 7.92067307692308  Z M 11.1388888888889 1.12980769230769  C 12.0092592592593 1.88301282051282  12.4444444444444 2.78846153846154  12.4444444444444 3.84615384615385  L 12.4444444444444 10  C 12.4444444444444 11.0576923076923  12.0092592592593 11.963141025641  11.1388888888889 12.7163461538462  C 10.2685185185185 13.4695512820513  9.22222222222222 13.8461538461538  8 13.8461538461538  C 6.77777777777778 13.8461538461538  5.73148148148148 13.4695512820513  4.86111111111111 12.7163461538462  C 3.99074074074074 11.963141025641  3.55555555555556 11.0576923076923  3.55555555555556 10  L 3.55555555555556 3.84615384615385  C 3.55555555555556 2.78846153846154  3.99074074074074 1.88301282051282  4.86111111111111 1.12980769230769  C 5.73148148148148 0.376602564102566  6.77777777777778 0  8 0  C 9.22222222222222 0  10.2685185185185 0.376602564102566  11.1388888888889 1.12980769230769  Z " fill-rule="nonzero" fill="#f71f39" stroke="none" transform="matrix(1 0 0 1 6 2 )" />
  </g>
</svg>