<svg t="1621910829418" class="icon" viewBox="0 0 1024 1024" version="1.1" xmlns="http://www.w3.org/2000/svg" p-id="2106" width="200" height="200"><path d="M255.668859 1006.03341c-19.122926 0-37.411802-6.001259-52.886869-17.353891-31.961264-23.569418-45.440633-51.301998-40.142383-82.487649 0.070832-0.412598 0.146977-0.825195 0.230204-1.236023l50.287327-247.289409a8.650384 8.650384 0 0 0-1.620287-6.254484L30.096606 506.928414a39.025006 39.025006 0 0 1-3.036931-2.688083c-24.479612-24.05816-33.174265-59.410516-22.687557-92.257181 10.566395-32.818333 38.003251-56.308065 71.728237-61.531941l238.509757-42.375369c0.380723-0.067291 0.763217-0.129269 1.142169-0.185934 2.395899-0.35239 4.504929-1.91247 5.678972-4.189725l109.843049-234.668881 0.240829-0.50645c14.920805-30.712846 46.520824-50.55826 80.506119-50.55826 34.410287 0 65.241777 19.337193 80.461848 50.466178 0.184164 0.375411 0.361244 0.754363 0.533012 1.135086l105.357599 234.282845c1.18821 2.195798 3.263594 3.697441 5.615223 4.044519 0.338224 0.049583 0.678218 0.104478 1.016443 0.162914l242.851771 42.378911c33.308846 5.121169 61.434546 29.218286 71.760111 61.540794 10.484938 32.705002 1.839867 68.04142-22.572454 92.181037-0.773842 0.766759-1.577787 1.49633-2.406525 2.188716l-172.589761 149.725124c-1.60612 1.896532-2.298505 4.467742-1.866428 7.021242l41.196013 243.113851c5.89324 35.262045-4.501387 62.959209-30.877531 82.411504-15.455588 11.386278-33.749777 17.401703-52.922285 17.410558a89.452226 89.452226 0 0 1-42.256726-10.662019l-220.042029-120.062365a7.299259 7.299259 0 0 0-6.387294-0.092082l-210.359266 119.807369c-0.315203 0.178851-0.630407 0.35239-0.947381 0.522388a89.377852 89.377852 0 0 1-41.916731 10.49025z m-15.954955-88.262245c1.069566 1.356437 3.594735 4.060456 9.197563 8.189974a11.395132 11.395132 0 0 0 6.755622 2.217048c1.733618 0 3.401717-0.393119 4.965337-1.168731l210.403537-119.833932c0.316974-0.180622 0.633948-0.354161 0.954464-0.525929a85.322709 85.322709 0 0 1 40.000719-9.994425 85.329792 85.329792 0 0 1 40.33186 10.175047l220.06682 120.074761c3.686816 1.923094 8.487469 1.570704 11.915749-0.954464 0.366557-0.270933 0.66051-0.504679 0.890715-0.699468 0.017708-1.039463-0.067291-2.962557-0.594991-6.119903l-41.183617-243.032393c-4.712113-27.824663 4.427013-56.226608 24.442424-75.978169 0.59322-0.584366 1.204148-1.151023 1.832784-1.696432l173.214855-150.26699c2.932453-3.348593 3.940042-8.13685 2.557043-12.448761-1.416644-4.434096-5.142418-7.688836-9.503912-8.328097a41.509445 41.509445 0 0 1-1.046546-0.168226l-242.869479-42.382453c-27.649353-4.272953-51.475537-21.869445-63.814508-47.168939a41.190701 41.190701 0 0 1-0.511763-1.097899L522.352127 102.260461c-2.107258-3.982541-6.029592-6.438648-10.330877-6.438648-4.388055 0-8.354659 2.50746-10.394627 6.557291l-109.869611 234.725546-0.269162 0.564887c-12.333658 25.278245-36.126198 42.862341-63.740134 47.145919l-238.507986 42.375369c-0.37364 0.06552-0.749051 0.127498-1.122691 0.182393-4.474825 0.66051-8.154558 3.87098-9.606618 8.375909-1.312167 4.110039-0.440931 8.699966 2.229444 11.979497l181.585451 144.603955a39.140108 39.140108 0 0 1 3.091826 2.742978c20.020724 19.753332 29.15985 48.157048 24.445966 75.978169-0.069061 0.419681-0.146977 0.837591-0.231975 1.25373L239.713904 917.771165z" p-id="2107" fill="#fd7202"></path></svg>